<?xml version="1.0" encoding="UTF-8" standalone="no"?>
<!-- Created with Inkscape (http://www.inkscape.org/) -->

<svg
   width="23"
   height="23"
   viewBox="0 0 6.0854166 6.0854168"
   version="1.1"
   id="svg954"
   inkscape:version="1.1.1 (c3084ef, 2021-09-22)"
   sodipodi:docname="deactualizado.svg"
   xmlns:inkscape="http://www.inkscape.org/namespaces/inkscape"
   xmlns:sodipodi="http://sodipodi.sourceforge.net/DTD/sodipodi-0.dtd"
   xmlns="http://www.w3.org/2000/svg"
   xmlns:svg="http://www.w3.org/2000/svg">
  <sodipodi:namedview
     id="namedview956"
     pagecolor="#919191"
     bordercolor="#999999"
     borderopacity="1"
     inkscape:pageshadow="0"
     inkscape:pageopacity="0"
     inkscape:pagecheckerboard="0"
     inkscape:document-units="mm"
     showgrid="false"
     units="px"
     width="25px"
     fit-margin-top="0"
     fit-margin-left="0"
     fit-margin-right="0"
     fit-margin-bottom="0"
     inkscape:zoom="5.6159371"
     inkscape:cx="14.690335"
     inkscape:cy="29.825833"
     inkscape:window-width="1312"
     inkscape:window-height="1027"
     inkscape:window-x="525"
     inkscape:window-y="29"
     inkscape:window-maximized="0"
     inkscape:current-layer="g1044" />
  <defs
     id="defs951" />
  <g
     inkscape:label="Layer 1"
     inkscape:groupmode="layer"
     id="layer1"
     transform="translate(-0.0614453,0.00377662)">
    <g
       id="g1039"
       transform="matrix(0.08784325,0,0,0.08784325,1.9737563,1.8340998)">
      <g
         id="g1044"
         transform="matrix(1.540999,0,0,1.540999,11.485117,8.6890514)">
        <circle
           style="opacity:0.99;fill:#ffffff;stroke:#ffffff;stroke-width:0.257987"
           id="path846-2-5-3"
           cx="0.89761788"
           cy="3.2619429"
           r="22.348587" />
        <ellipse
           style="opacity:0.99;fill:#800080;fill-opacity:1;stroke:#ffffff;stroke-width:0.246813"
           id="path846-8-8"
           cx="0.89761788"
           cy="3.2619429"
           rx="21.303202"
           ry="21.458107" />
        <path
           style="fill:#ffffff;stroke-width:0.0586718"
           d="m 0.24336801,21.56349 c -0.41541334,-0.176131 -0.51942933,-0.251375 -0.7773362,-0.562322 -0.39161914,-0.472136 -0.38816155,-0.431139 -0.38816155,-4.611386 0,-3.64798 0.003718,-3.764558 0.11989119,-4.062154 0.3891096,-0.99435 1.49140399,-1.428184 2.47560105,-0.974323 0.3659939,0.168771 0.7497777,0.611585 0.8669734,1.000312 0.1059028,0.351242 0.107706,7.79311 0.00186,8.137171 C 2.257335,21.417749 1.1348342,21.941507 0.24325788,21.56349 Z M -9.343763,18.465774 c -0.256364,-0.08426 -0.4181553,-0.190081 -0.707246,-0.462456 -0.45011,-0.424088 -0.635872,-1.126468 -0.465214,-1.758988 0.06599,-0.24454 0.377454,-0.743293 0.9703022,-1.553703 0.1776944,-0.242902 0.3972517,-0.547631 0.4879207,-0.677176 0.090622,-0.129545 0.5949293,-0.831757 1.1206047,-1.560454 0.5256567,-0.728697 1.010919,-1.404404 1.0783422,-1.501565 0.9467955,-1.364353 1.3972774,-1.6884066 2.2271746,-1.6021342 0.8291816,0.086227 1.446381,0.6651752 1.6036365,1.5042992 0.08393,0.447644 -0.093504,1.062712 -0.4302661,1.491856 -0.1172051,0.149346 -0.2490863,0.331694 -1.104962,1.52778 -0.1997412,0.279143 -0.5522951,0.769367 -0.7834614,1.089376 -0.4074014,0.564006 -1.1503568,1.599362 -1.7843422,2.486598 -0.554312,0.775742 -0.9316268,1.019075 -1.624475,1.047649 -0.2411579,0.0099 -0.5057569,-0.0047 -0.5880142,-0.03109 z M 9.9880882,18.435253 C 9.5056607,18.254413 9.3617988,18.08668 7.7299252,15.802341 7.2637076,15.149721 6.7459234,14.427232 6.5792989,14.196818 6.4126652,13.966405 6.2153591,13.691082 6.1408442,13.58499 6.0663015,13.478888 5.8738287,13.213264 5.7130598,12.994703 5.0124971,12.042306 4.8866852,11.821152 4.809763,11.406959 4.6269008,10.422262 5.378807,9.4567011 6.4121261,9.3492791 c 0.6999585,-0.072748 1.2074536,0.2107151 1.780801,0.9947609 0.961165,1.314368 1.2734174,1.745825 1.4077153,1.945156 0.1582407,0.23486 1.7196706,2.406777 2.1868546,3.041871 0.414056,0.562856 0.559498,0.908236 0.560187,1.330209 0.0019,1.001605 -0.73475,1.788123 -1.720796,1.837976 -0.263595,0.01329 -0.494111,-0.0097 -0.6387998,-0.06403 z M -15.166242,10.156142 c -0.546338,-0.11362 -1.0449,-0.5046411 -1.269234,-0.9954541 -0.17513,-0.383158 -0.174358,-1.1600233 0.0019,-1.5450622 0.154012,-0.337114 0.528185,-0.7227522 0.822406,-0.8475877 0.21241,-0.090158 1.290445,-0.4501906 4.341996,-1.4502415 0.787746,-0.2581625 1.6591345,-0.5456288 1.9364206,-0.6388201 0.6633657,-0.2229513 1.0254838,-0.2671127 1.4485559,-0.1766739 0.8460419,0.1808402 1.508915,1.1250924 1.3831032,1.970171 -0.053537,0.3596955 -0.3376732,0.9259024 -0.5585689,1.1131276 -0.3100962,0.2628249 -0.5225245,0.347403 -2.4557107,0.9777129 -1.0128241,0.330223 -1.9467191,0.6374339 -2.0753281,0.6826823 -1.096756,0.3858622 -2.815617,0.9129257 -3.047007,0.9343087 -0.156864,0.01451 -0.394546,0.0037 -0.528175,-0.02416 z m 31.343621,-0.0075 C 15.969765,10.100249 14.676662,9.6796996 10.594459,8.3328451 9.9353227,8.1153796 9.3122027,7.8936173 9.2097482,7.8400468 8.646216,7.5453998 8.2840979,6.9159326 8.2894237,6.2402349 8.2931416,5.7419227 8.4328488,5.3922353 8.7783295,5.0147048 9.1288572,4.6316693 9.5164332,4.4747589 10.09755,4.4806197 c 0.404447,0.00468 0.598081,0.048684 1.432263,0.3296896 0.530527,0.1787337 1.714345,0.5702233 2.630691,0.8699633 3.481045,1.1386583 3.365727,1.0942534 3.690221,1.421097 0.301136,0.3033164 0.467686,0.6802384 0.504455,1.1416077 0.07455,0.9351141 -0.495904,1.6858126 -1.43295,1.8858267 -0.443398,0.09464 -0.425869,0.09417 -0.744851,0.01984 z M -8.8434433,1.9500837 C -9.0685124,1.8717221 -9.5946524,1.700188 -10.01264,1.5689301 -10.430628,1.4376721 -11.535526,1.0877506 -12.467961,0.79132483 -13.400386,0.49490832 -14.373747,0.1881186 -14.630974,0.1095791 c -1.142782,-0.34893836 -1.536865,-0.60877674 -1.801138,-1.1875851 -0.179497,-0.393128 -0.179497,-1.163749 0,-1.5568675 0.176913,-0.3874732 0.594446,-0.778916 0.968898,-0.9083483 0.563495,-0.1947805 0.920334,-0.1459099 2.322974,0.3181554 0.691287,0.2287185 2.203929,0.7264689 3.3614335,1.1061153 1.1575136,0.3796464 2.2012241,0.7392764 2.3193679,0.7991851 0.8345724,0.42315253 1.1998413,1.51700336 0.789001,2.3628215 -0.1881323,0.3873328 -0.4691363,0.6546235 -0.8943275,0.8506959 -0.4574715,0.2109677 -0.7922448,0.2257132 -1.2786782,0.056361 z M 9.5977517,2.011687 C 9.271074,1.9192821 8.9875327,1.7462313 8.7413556,1.4891828 7.9609057,0.67425995 8.2237015,-0.80668958 9.2396861,-1.3191949 9.3578206,-1.378832 10.362076,-1.7258887 11.47135,-2.0905181 c 1.109284,-0.3646294 2.569319,-0.8454904 3.244526,-1.0685729 1.578717,-0.521596 1.814745,-0.5669839 2.29825,-0.4420267 0.886177,0.2290368 1.40686,0.9482781 1.342496,1.8544543 -0.0356,0.5015703 -0.203488,0.88082347 -0.530519,1.19863255 -0.267833,0.26029707 -0.563142,0.39755622 -1.414891,0.65762867 -0.257218,0.0785489 -1.230578,0.38532922 -2.163013,0.68174573 C 13.315764,1.0877694 12.210876,1.4374942 11.792888,1.5685088 11.3749,1.6995233 10.880529,1.8576133 10.694274,1.9198158 10.23209,2.074189 9.9130435,2.100918 9.5977517,2.0116589 Z M -5.3943154,-2.8665317 c -0.2930127,-0.1095751 -0.6527049,-0.4438055 -1.0237178,-0.9512458 -0.997414,-1.364203 -1.2696625,-1.7408629 -1.4133479,-1.955407 -0.08644,-0.1290485 -0.4735604,-0.6718498 -0.8603092,-1.2062346 -0.3867487,-0.5343753 -0.8158624,-1.1295113 -0.9535992,-1.3225224 -0.1377369,-0.193011 -0.3496353,-0.4844843 -0.4708925,-0.6477328 -0.337385,-0.454235 -0.468588,-0.8611442 -0.437498,-1.3567417 0.04415,-0.702764 0.37211,-1.189542 1.0146279,-1.50574 0.3925673,-0.193189 1.1067373,-0.198422 1.4623956,-0.01067 0.4686249,0.247339 0.4848254,0.266223 1.7818605,2.0758419 0.2901685,0.4048401 0.7167075,0.9978976 0.9478644,1.3179162 0.2311663,0.3200092 0.5837202,0.8102325 0.7834614,1.0893757 0.8646498,1.2083505 0.988296,1.3790233 1.1125649,1.5358214 0.7414125,0.9354705 0.4648422,2.2925769 -0.577595,2.8342267 -0.2952712,0.1534183 -1.0740852,0.2122316 -1.3658151,0.1031433 z M 5.9791923,-2.8674678 C 5.185256,-3.0970196 4.6141579,-4.1299038 4.8286218,-4.948375 4.9158982,-5.2815194 5.0584031,-5.5813718 5.2389882,-5.8119252 5.3596786,-5.9660175 5.5973233,-6.2942562 6.3613588,-7.3621549 6.5698928,-7.6536376 6.9321875,-8.1571083 7.1664395,-8.4809748 7.4006916,-8.8048412 7.9670773,-9.5923142 8.42506,-10.2309 c 0.855857,-1.193371 1.0177877,-1.373406 1.4318348,-1.591947 0.3556682,-0.187722 1.0698282,-0.182498 1.4624052,0.01076 0.642518,0.316198 0.970515,0.802976 1.014618,1.50574 0.03114,0.4955976 -0.100112,0.9025067 -0.437498,1.3567417 -0.121247,0.1632393 -0.333146,0.4547218 -0.470883,0.6477328 -0.137736,0.1930111 -0.566859,0.7881471 -0.953608,1.3225224 -0.38674,0.5343849 -0.7738791,1.0771862 -0.8603004,1.2062347 -0.08644,0.1290485 -0.3544407,0.5048096 -0.5955894,0.8350517 -0.2411487,0.3302326 -0.5958404,0.8174507 -0.7882109,1.0827097 -0.419159,0.5779845 -0.7123947,0.8424104 -1.0705068,0.9653173 -0.2955408,0.10143 -0.8675683,0.1124213 -1.1781292,0.022657 z M 0.33475263,-4.718814 c -0.53180047,-0.1705043 -0.93090177,-0.548634 -1.13820877,-1.0783938 -0.11878513,-0.3035505 -0.12080206,-0.3840467 -0.10527077,-4.2053302 0.0158009,-3.891237 0.0159867,-3.896171 0.14601834,-4.169359 0.16904109,-0.355127 0.58615535,-0.720918 1.00116903,-0.878006 0.65565115,-0.248155 1.44750554,-0.07977 1.91863074,0.408051 0.4979402,0.515586 0.4978752,0.514884 0.4744528,4.8948556 -0.014964,2.8028072 -0.038387,3.793805 -0.093494,3.9572689 -0.126732,0.3759859 -0.5136667,0.8080793 -0.8713326,0.973013 -0.4068437,0.1876091 -0.93180339,0.2262001 -1.33196477,0.0979 z"
           id="path11292" />
      </g>
    </g>
  </g>
</svg>
