<?xml version="1.0" encoding="UTF-8" standalone="no"?>
<!-- Created with Inkscape (http://www.inkscape.org/) -->

<svg
   width="23.000002"
   height="23"
   viewBox="0 0 6.0854169 6.0854167"
   version="1.1"
   id="svg913"
   inkscape:version="1.1.1 (c3084ef, 2021-09-22)"
   sodipodi:docname="disconnected.svg"
   xmlns:inkscape="http://www.inkscape.org/namespaces/inkscape"
   xmlns:sodipodi="http://sodipodi.sourceforge.net/DTD/sodipodi-0.dtd"
   xmlns="http://www.w3.org/2000/svg"
   xmlns:svg="http://www.w3.org/2000/svg">
  <sodipodi:namedview
     id="namedview915"
     pagecolor="#a43737"
     bordercolor="#999999"
     borderopacity="1"
     inkscape:pageshadow="0"
     inkscape:pageopacity="0"
     inkscape:pagecheckerboard="0"
     inkscape:document-units="mm"
     showgrid="false"
     units="px"
     fit-margin-top="0"
     fit-margin-left="0"
     fit-margin-right="0"
     fit-margin-bottom="0"
     inkscape:zoom="11.724364"
     inkscape:cx="12.58064"
     inkscape:cy="20.51284"
     inkscape:window-width="1312"
     inkscape:window-height="1027"
     inkscape:window-x="0"
     inkscape:window-y="25"
     inkscape:window-maximized="0"
     inkscape:current-layer="layer1" />
  <defs
     id="defs910" />
  <g
     inkscape:label="Layer 1"
     inkscape:groupmode="layer"
     id="layer1"
     transform="translate(-64.766282,-86.046464)">
    <ellipse
       style="opacity:0.99;fill:#ffffff;stroke:#ffffff;stroke-width:0.0349228"
       id="path846-2-5-0-1"
       cx="67.80899"
       cy="89.089172"
       rx="3.0252471"
       ry="3.0252469" />
    <ellipse
       style="opacity:0.99;fill:#ffd802;fill-opacity:1;stroke:#ffffff;stroke-width:0.0334102"
       id="path846-8-2-8"
       cx="67.80899"
       cy="89.089172"
       rx="2.8837366"
       ry="2.9047053" />
    <path
       style="fill:#333333;stroke-width:0.00591591"
       d="m 67.738999,91.588083 c -0.09131,-0.03536 -0.126821,-0.140085 -0.08037,-0.237035 0.03347,-0.06986 0.06179,-0.0808 0.229501,-0.08881 0.235449,-0.01115 0.479934,-0.06217 0.691849,-0.144119 0.102493,-0.03964 0.356326,-0.167881 0.371354,-0.18762 0.0056,-0.0073 0.10448,-0.07215 0.110062,-0.07215 0.0029,0 0.01335,-0.0074 0.02292,-0.01664 0.0095,-0.0091 0.04376,-0.03788 0.0761,-0.06382 0.10448,-0.0839 0.222526,-0.200058 0.294948,-0.29024 0.01289,-0.01612 0.0304,-0.03616 0.03876,-0.04453 0.0083,-0.0083 0.01835,-0.02111 0.02217,-0.02831 0.0087,-0.01661 0.0692,-0.101803 0.08331,-0.117538 0.01411,-0.01572 0.05909,-0.09057 0.05909,-0.09832 0,-0.0033 0.01076,-0.02268 0.02407,-0.04294 0.02871,-0.04395 0.117388,-0.222696 0.117388,-0.23662 4e-6,-0.0054 0.0077,-0.02809 0.01714,-0.05047 0.06649,-0.157865 0.113323,-0.349201 0.131356,-0.536471 0.0099,-0.10243 0.01,-0.382781 1.24e-4,-0.486867 -0.02517,-0.267946 -0.109076,-0.535766 -0.24456,-0.780767 -0.01987,-0.03591 -0.04126,-0.076 -0.04752,-0.08906 -0.0062,-0.01313 -0.01305,-0.02508 -0.01517,-0.02672 -0.0021,-0.0017 -0.02402,-0.0337 -0.04871,-0.07125 -0.0247,-0.03756 -0.05184,-0.07476 -0.06026,-0.08268 -0.0084,-0.0079 -0.01534,-0.01733 -0.01534,-0.02094 0,-0.0068 -0.06389,-0.08886 -0.08125,-0.104248 -0.0056,-0.0049 -0.03133,-0.03288 -0.05727,-0.06215 -0.02594,-0.02926 -0.05511,-0.05991 -0.06482,-0.06813 -0.0097,-0.0082 -0.04024,-0.03646 -0.06779,-0.06272 -0.05566,-0.05309 -0.101827,-0.09194 -0.109198,-0.09194 -0.0027,0 -0.01963,-0.01284 -0.03771,-0.02865 -0.01806,-0.01574 -0.05807,-0.04574 -0.08887,-0.06662 -0.0308,-0.02089 -0.05688,-0.04006 -0.05796,-0.04261 -0.0011,-0.0026 -0.0052,-0.0046 -0.0091,-0.0046 -0.004,0 -0.02565,-0.011 -0.04814,-0.0244 -0.02251,-0.01345 -0.05812,-0.03468 -0.07923,-0.04721 -0.04677,-0.02788 -0.113823,-0.05798 -0.241672,-0.108586 -0.164855,-0.06522 -0.243148,-0.08587 -0.430303,-0.113415 -0.144385,-0.02123 -0.216723,-0.027 -0.338934,-0.02699 -0.149873,2.5e-5 -0.308829,0.01678 -0.4863,0.05128 -0.06268,0.01221 -0.205768,0.05982 -0.293992,0.09789 -0.03689,0.01591 -0.07063,0.02894 -0.07501,0.02894 -0.01,0 -0.173951,0.08522 -0.205728,0.106906 -0.01289,0.0088 -0.04216,0.02613 -0.06482,0.03841 -0.02269,0.01222 -0.07639,0.04871 -0.119297,0.081 -0.04292,0.03228 -0.08059,0.05868 -0.0837,0.05868 -0.0032,0 -0.0077,0.0036 -0.01031,0.0081 -0.0026,0.0044 -0.0246,0.02474 -0.04888,0.04514 -0.05418,0.04548 -0.128715,0.117416 -0.192269,0.185552 -0.04493,0.04817 -0.157299,0.184112 -0.170272,0.206 -0.0032,0.0055 -0.02316,0.03612 -0.04421,0.06815 -0.02106,0.03202 -0.04704,0.07198 -0.05771,0.08881 -0.02366,0.03737 -0.156759,0.307487 -0.165749,0.336398 -0.0036,0.01145 -0.01825,0.05686 -0.03266,0.100933 -0.04158,0.127208 -0.07206,0.266862 -0.09004,0.412521 -0.01425,0.115383 -0.01411,0.39033 2.52e-4,0.495899 0.02182,0.160135 0.0538,0.303665 0.09518,0.427174 0.01136,0.03411 0.02078,0.06567 0.02078,0.0701 0,0.01497 0.07928,0.191486 0.142017,0.316148 0.01486,0.02961 0.08653,0.142774 0.100992,0.159555 0.0095,0.011 0.02027,0.02705 0.02397,0.03563 0.007,0.01671 0.05171,0.078 0.06875,0.09459 0.01918,0.01869 0.07692,0.08983 0.07692,0.09478 0,0.007 0.03938,0.04299 0.07089,0.06485 0.09194,0.06377 0.194346,0.08612 0.295532,0.06452 0.04271,-0.0091 0.120057,-0.04278 0.148932,-0.06482 0.01,-0.0076 0.02105,-0.01497 0.02464,-0.01622 0.0103,-0.0038 0.05522,-0.05839 0.07774,-0.09445 0.01122,-0.01795 0.02916,-0.04621 0.03986,-0.06273 0.01076,-0.01654 0.02635,-0.04579 0.03478,-0.065 0.0084,-0.01922 0.02125,-0.04308 0.02848,-0.05305 0.0073,-0.0099 0.0196,-0.03014 0.02751,-0.04483 0.0078,-0.01466 0.02577,-0.04541 0.03967,-0.06829 0.04223,-0.06942 0.04686,-0.08006 0.03741,-0.08596 -0.03319,-0.02065 -0.118798,-0.109503 -0.165749,-0.171997 -0.05578,-0.07426 -0.105422,-0.151679 -0.105544,-0.164611 -3.5e-5,-0.0038 -0.009,-0.0252 -0.02018,-0.0475 -0.127367,-0.256727 -0.130006,-0.604411 -0.0066,-0.870391 0.01471,-0.03168 0.02673,-0.06004 0.02673,-0.06302 0,-0.0052 0.05081,-0.09323 0.100186,-0.173543 0.01335,-0.02159 0.034,-0.05898 0.04609,-0.08311 0.01214,-0.02414 0.032,-0.05992 0.0443,-0.07952 0.02144,-0.03416 0.07068,-0.116071 0.08399,-0.139765 0.0035,-0.0062 0.01624,-0.01923 0.02834,-0.02891 0.04024,-0.03221 0.124484,-0.03271 0.173538,-9.27e-4 0.01516,0.0098 0.05346,0.03116 0.08511,0.0475 0.03165,0.01633 0.0688,0.03737 0.08251,0.04676 0.02072,0.0142 0.119571,0.07255 0.151697,0.08964 0.02756,0.01466 0.08039,0.04488 0.102738,0.0588 0.08424,0.05248 0.129155,0.0784 0.135753,0.0784 0.004,0 0.01379,0.0049 0.02155,0.011 0.0077,0.0059 0.04324,0.02777 0.0789,0.04827 0.03567,0.02051 0.06907,0.041 0.07424,0.04552 0.0052,0.0046 0.03435,0.02108 0.06482,0.0368 0.05677,0.02927 0.197539,0.113031 0.222751,0.13254 0.0077,0.0059 0.01731,0.01083 0.02126,0.01083 0.0075,0 0.08459,0.04356 0.138576,0.07843 0.01782,0.01146 0.05231,0.03166 0.07663,0.04476 0.06366,0.03432 0.1571,0.08871 0.193324,0.112544 0.01717,0.0113 0.05242,0.03139 0.07833,0.04461 0.05617,0.02871 0.08985,0.06396 0.102691,0.107487 0.01485,0.05029 0.01017,0.07897 -0.02212,0.137414 -0.01046,0.01907 -0.03024,0.05565 -0.04372,0.08128 -0.0135,0.02562 -0.03586,0.06329 -0.0497,0.08368 -0.01379,0.0204 -0.0386,0.06276 -0.05501,0.09413 -0.04521,0.0863 -0.106985,0.188459 -0.136042,0.224994 -0.01425,0.01796 -0.02608,0.03626 -0.02624,0.04068 -1.17e-4,0.0044 -0.03539,0.04333 -0.07834,0.08648 -0.07922,0.07957 -0.127488,0.122211 -0.13836,0.122211 -0.0033,0 -0.02425,0.01345 -0.04655,0.02986 -0.03978,0.0293 -0.161976,0.0929 -0.202654,0.10547 -0.164724,0.05089 -0.236472,0.063 -0.374302,0.0631 -0.119858,6e-5 -0.190874,-0.0099 -0.290961,-0.04078 -0.08184,-0.02526 -0.08065,-0.02538 -0.101146,0.01024 -0.0099,0.01705 -0.0261,0.04838 -0.03617,0.06961 -0.01,0.02122 -0.02181,0.04267 -0.02609,0.04765 -0.0043,0.0051 -0.02744,0.04774 -0.05144,0.095 -0.07099,0.139796 -0.08964,0.167336 -0.183225,0.270753 -0.01586,0.01752 -0.04239,0.04095 -0.05895,0.05206 -0.01656,0.01115 -0.04073,0.02877 -0.05368,0.03923 -0.03389,0.02736 -0.145294,0.07939 -0.200414,0.09361 -0.159669,0.04117 -0.369048,0.0251 -0.493661,-0.0379 -0.0522,-0.02639 -0.123561,-0.07207 -0.129975,-0.08318 -0.0026,-0.0044 -0.008,-0.0082 -0.01197,-0.0082 -0.01152,0 -0.12177,-0.11126 -0.121938,-0.123039 -3.4e-5,-0.0026 -0.0091,-0.0136 -0.0204,-0.0245 -0.05733,-0.05611 -0.256588,-0.342532 -0.256588,-0.36884 0,-0.0036 -0.0091,-0.02133 -0.02068,-0.03926 -0.03041,-0.04789 -0.108562,-0.206555 -0.112915,-0.229275 -0.0021,-0.01083 -0.0097,-0.03296 -0.01706,-0.04927 -0.04299,-0.0959 -0.110322,-0.311978 -0.120027,-0.385167 -0.0029,-0.0233 -0.01214,-0.0784 -0.02017,-0.122472 -0.02664,-0.146685 -0.03578,-0.256711 -0.03558,-0.427494 1.16e-4,-0.08655 0.0035,-0.188065 0.0075,-0.225619 0.0097,-0.09003 0.02897,-0.21972 0.03932,-0.264214 0.0046,-0.0196 0.0083,-0.04547 0.0083,-0.05752 1.17e-4,-0.03601 0.0492,-0.19665 0.09385,-0.307326 0.023,-0.05698 0.04179,-0.106691 0.04179,-0.110449 0,-0.0089 0.05677,-0.13005 0.07364,-0.156963 0.0073,-0.0116 0.02775,-0.04925 0.04552,-0.08366 0.03271,-0.06334 0.10979,-0.186034 0.134026,-0.21327 0.0073,-0.0081 0.01732,-0.02286 0.02236,-0.03268 0.01244,-0.02435 0.05791,-0.08459 0.08271,-0.1097 0.01122,-0.0113 0.03241,-0.03675 0.04708,-0.0564 0.01471,-0.01968 0.04687,-0.05593 0.07154,-0.08059 0.02467,-0.02466 0.0581,-0.05975 0.07432,-0.07797 0.0162,-0.01823 0.05334,-0.0535 0.08251,-0.07841 0.02919,-0.0249 0.07295,-0.06281 0.09726,-0.08421 0.02432,-0.02143 0.04953,-0.04112 0.05599,-0.04378 0.0064,-0.0027 0.02638,-0.01674 0.04421,-0.03128 0.01783,-0.0145 0.05363,-0.04088 0.07958,-0.05851 0.02594,-0.01763 0.04927,-0.03544 0.05186,-0.03956 0.0026,-0.0041 0.0081,-0.0074 0.01259,-0.0074 0.0069,0 0.06338,-0.03193 0.121238,-0.06864 0.09808,-0.06225 0.425061,-0.201608 0.50693,-0.21607 0.01456,-0.0026 0.0504,-0.01191 0.07958,-0.02065 0.06002,-0.01803 0.202536,-0.04598 0.303569,-0.05948 0.256248,-0.03426 0.513275,-0.02552 0.781026,0.02655 0.09729,0.01893 0.276323,0.06374 0.327145,0.08189 0.06277,0.02243 0.183871,0.07276 0.224185,0.09322 0.02242,0.0113 0.04427,0.02069 0.04854,0.02069 0.01274,0 0.160036,0.08124 0.209301,0.115416 0.01711,0.01191 0.03779,0.02412 0.04592,0.02725 0.0185,0.007 0.07938,0.04826 0.114537,0.07748 0.01456,0.01207 0.04383,0.03368 0.06499,0.04791 0.02115,0.01421 0.06982,0.05392 0.10812,0.0882 0.0383,0.03427 0.07272,0.06368 0.07649,0.06531 0.01152,0.0051 0.157785,0.16001 0.20728,0.219683 0.02573,0.03103 0.04998,0.05842 0.0539,0.06092 0.004,0.0024 0.01971,0.02387 0.03511,0.0475 0.01538,0.02364 0.04284,0.06302 0.06096,0.08752 0.03365,0.04544 0.07506,0.109091 0.0895,0.137564 0.0044,0.0086 0.02513,0.04613 0.04601,0.08311 0.0594,0.105239 0.08241,0.15029 0.09413,0.184261 0.0059,0.01729 0.03242,0.08442 0.05875,0.149161 0.05208,0.127941 0.0727,0.19664 0.100204,0.333535 0.04196,0.20891 0.05285,0.300318 0.05766,0.483897 0.0053,0.201214 -0.01016,0.369948 -0.05157,0.56612 -0.0097,0.04621 -0.02022,0.09879 -0.0233,0.116837 -0.01122,0.06647 -0.05763,0.203644 -0.112337,0.331811 -0.01591,0.03727 -0.02892,0.07067 -0.02891,0.07421 0,0.0079 -0.0754,0.157348 -0.08565,0.16974 -0.004,0.0049 -0.02264,0.0383 -0.04128,0.07421 -0.01865,0.03591 -0.03564,0.06666 -0.03776,0.06827 -0.0021,0.0017 -0.02456,0.0333 -0.04985,0.07034 -0.02529,0.03706 -0.05104,0.07246 -0.0572,0.07867 -0.0062,0.0062 -0.01122,0.01375 -0.01122,0.01687 0,0.007 -0.05971,0.08115 -0.105739,0.130967 -0.01959,0.02122 -0.03565,0.04092 -0.03568,0.04377 0,0.0029 -0.03952,0.04424 -0.08779,0.09203 -0.101128,0.100108 -0.120754,0.118241 -0.145095,0.133961 -0.0097,0.0062 -0.03227,0.02518 -0.05009,0.04198 -0.03392,0.03198 -0.09155,0.07746 -0.121588,0.09598 -0.0097,0.0059 -0.06031,0.0396 -0.112459,0.07471 -0.05216,0.03511 -0.09773,0.06383 -0.101264,0.06383 -0.0035,0 -0.03335,0.01496 -0.06624,0.03335 -0.07998,0.0446 -0.213178,0.109136 -0.225248,0.109136 -0.0053,0 -0.03824,0.0116 -0.07311,0.02579 -0.139742,0.05681 -0.318958,0.106966 -0.425932,0.119218 -0.01456,0.0019 -0.05305,0.007 -0.08548,0.01223 -0.09943,0.01541 -0.236724,0.0269 -0.317778,0.02656 -0.06234,-2.51e-4 -0.083,-0.0026 -0.107635,-0.01207 z m -0.343371,-1.709417 c 0.0053,-0.0049 0.03797,-0.03288 0.07244,-0.06223 0.03448,-0.02931 0.06268,-0.05526 0.06268,-0.05768 0,-0.0024 0.01525,-0.01482 0.0339,-0.02777 0.01864,-0.01284 0.05777,-0.04588 0.08695,-0.07332 0.02918,-0.02746 0.06764,-0.06081 0.08548,-0.0741 0.01782,-0.01328 0.04714,-0.0385 0.0651,-0.05603 0.01796,-0.01752 0.04294,-0.04011 0.05546,-0.0502 0.02218,-0.01786 0.0246,-0.03213 0.0054,-0.03213 -0.0049,0 -0.02656,-0.0116 -0.04829,-0.02568 -0.02169,-0.01406 -0.06395,-0.03966 -0.09388,-0.05678 -0.02992,-0.01711 -0.05588,-0.03348 -0.05764,-0.0364 -0.0033,-0.0054 0.03373,-0.0795 0.06667,-0.133487 0.05448,-0.0893 0.0837,-0.141094 0.0837,-0.148351 0,-0.0044 0.0035,-0.0116 0.0077,-0.016 0.01304,-0.01313 0.07615,-0.124198 0.0726,-0.127774 -0.0033,-0.0033 -0.06207,0.04557 -0.08332,0.06955 -0.0064,0.0073 -0.03168,0.02877 -0.05599,0.04765 -0.02431,0.01891 -0.06091,0.05055 -0.08134,0.07037 -0.02041,0.01981 -0.05358,0.04857 -0.07368,0.06394 -0.02009,0.01536 -0.05645,0.04684 -0.08076,0.06996 -0.0243,0.0231 -0.06145,0.05526 -0.08251,0.07149 -0.02106,0.01622 -0.04627,0.03765 -0.05599,0.04763 -0.0097,0.0099 -0.02941,0.02807 -0.04375,0.04018 -0.01441,0.01207 -0.02494,0.02295 -0.02359,0.02406 0.0064,0.0052 0.07511,0.04555 0.07755,0.04555 0.0027,0 0.107786,0.05939 0.132749,0.07507 0.01274,0.0081 0.01289,0.0091 0.0043,0.03025 -0.0051,0.01207 -0.01121,0.02335 -0.01365,0.02508 -0.0026,0.0019 -0.02001,0.02989 -0.03882,0.06255 -0.01882,0.03267 -0.04275,0.07273 -0.05317,0.08906 -0.01046,0.01632 -0.02871,0.05021 -0.04056,0.07532 -0.01181,0.0251 -0.0249,0.04914 -0.02899,0.05344 -0.0144,0.01512 -0.05669,0.09023 -0.05362,0.09519 0.0026,0.0041 0.03654,-0.02336 0.09693,-0.07847 z m 1.123675,-0.964252 c -0.01534,-0.011 -0.03648,-0.02338 -0.04697,-0.02751 -0.03303,-0.01298 -0.157601,-0.08994 -0.157601,-0.09728 0,-0.0038 0.01091,-0.02393 0.02423,-0.04459 0.01335,-0.02068 0.03081,-0.0526 0.03886,-0.07094 0.008,-0.01835 0.0245,-0.04806 0.03658,-0.06603 0.02485,-0.03697 0.07954,-0.131747 0.117114,-0.202991 0.02456,-0.04656 0.03413,-0.06227 0.09956,-0.163078 0.01729,-0.02663 0.03142,-0.05113 0.03142,-0.05443 0,-0.0086 0.05675,-0.104216 0.09147,-0.153978 0.0132,-0.01889 0.05139,-0.03708 0.07791,-0.03708 0.01577,0 0.03654,0.0079 0.06949,0.02676 0.05642,0.0321 0.08891,0.06462 0.09448,0.09456 0.0052,0.02804 -0.0062,0.06875 -0.02768,0.09861 -0.0093,0.01284 -0.01683,0.02621 -0.01683,0.02964 0,0.0033 -0.0049,0.01345 -0.01076,0.02232 -0.03697,0.05526 -0.04945,0.07519 -0.07812,0.124581 -0.01758,0.03027 -0.04398,0.07838 -0.05868,0.106875 -0.01471,0.0285 -0.03884,0.07051 -0.05362,0.09337 -0.01471,0.02286 -0.0437,0.0723 -0.06428,0.109838 -0.03238,0.05909 -0.06791,0.120655 -0.115312,0.199644 -0.01975,0.03292 -0.02117,0.03325 -0.05125,0.01176 z m -0.760359,-0.443327 c -0.01525,-0.0096 -0.03113,-0.0174 -0.03527,-0.0174 -0.004,0 -0.02083,-0.0088 -0.03713,-0.01962 -0.01628,-0.01083 -0.05469,-0.03396 -0.08534,-0.05145 -0.03065,-0.01749 -0.05678,-0.03265 -0.05807,-0.03368 -0.0013,-0.001 0.0043,-0.0119 0.01228,-0.02425 0.05887,-0.09013 0.09042,-0.141827 0.112214,-0.184042 0.02267,-0.04386 0.06951,-0.124215 0.125532,-0.215355 0.01107,-0.01795 0.02033,-0.03667 0.02072,-0.04157 3.65e-4,-0.0049 0.01092,-0.02493 0.02358,-0.04453 0.01259,-0.0196 0.038,-0.06235 0.0564,-0.095 0.01842,-0.03267 0.03973,-0.06787 0.04738,-0.07826 0.0075,-0.01038 0.01396,-0.02261 0.01396,-0.02716 0,-0.01466 0.04036,-0.06597 0.06026,-0.07667 0.01061,-0.0057 0.03175,-0.01054 0.04697,-0.01069 0.02321,-2.02e-4 0.03681,0.0052 0.08445,0.03325 0.06816,0.04019 0.08852,0.06555 0.08786,0.109443 -2.53e-4,0.02114 -0.0056,0.03653 -0.02137,0.06278 -0.01152,0.01912 -0.03548,0.0588 -0.05326,0.08818 -0.01776,0.02939 -0.04362,0.07481 -0.05744,0.100931 -0.02935,0.05545 -0.05896,0.106663 -0.08602,0.148689 -0.01061,0.01647 -0.03019,0.0512 -0.04356,0.0772 -0.01335,0.026 -0.02692,0.05124 -0.03012,0.05615 -0.06445,0.09869 -0.106225,0.169106 -0.138514,0.233534 -0.0062,0.01252 -0.01289,0.02368 -0.01456,0.02482 -0.0018,0.0011 -0.01566,-0.0057 -0.03092,-0.01533 z"
       id="path1661" />
  </g>
</svg>
