<?xml version="1.0" encoding="UTF-8" standalone="no"?>
<!-- Created with Inkscape (http://www.inkscape.org/) -->

<svg
   width="23"
   height="23"
   viewBox="0 0 6.0854166 6.0854169"
   version="1.1"
   id="svg3483"
   inkscape:version="1.1.1 (c3084ef, 2021-09-22)"
   sodipodi:docname="lowBattery.svg"
   xmlns:inkscape="http://www.inkscape.org/namespaces/inkscape"
   xmlns:sodipodi="http://sodipodi.sourceforge.net/DTD/sodipodi-0.dtd"
   xmlns="http://www.w3.org/2000/svg"
   xmlns:svg="http://www.w3.org/2000/svg">
  <sodipodi:namedview
     id="namedview3485"
     pagecolor="#817e7e"
     bordercolor="#999999"
     borderopacity="1"
     inkscape:pageshadow="0"
     inkscape:pageopacity="0"
     inkscape:pagecheckerboard="0"
     inkscape:document-units="mm"
     showgrid="false"
     units="px"
     fit-margin-top="0"
     fit-margin-left="0"
     fit-margin-right="0"
     fit-margin-bottom="0"
     inkscape:zoom="22.435242"
     inkscape:cx="9.1819825"
     inkscape:cy="18.564542"
     inkscape:window-width="1623"
     inkscape:window-height="1027"
     inkscape:window-x="25"
     inkscape:window-y="25"
     inkscape:window-maximized="0"
     inkscape:current-layer="layer1" />
  <defs
     id="defs3480" />
  <g
     inkscape:label="Layer 1"
     inkscape:groupmode="layer"
     id="layer1"
     transform="translate(-114.69381,-131.47221)">
    <ellipse
       style="opacity:0.99;fill:#ffffff;stroke:#ffffff;stroke-width:0.0348585"
       id="path846-2-5-0"
       cx="117.74187"
       cy="134.49838"
       rx="3.0306265"
       ry="3.0087485" />
    <circle
       style="opacity:0.99;fill:#ffd802;fill-opacity:1;stroke:#ffffff;stroke-width:0.0333485"
       id="path846-8-2"
       cx="117.74187"
       cy="134.49838"
       r="2.8888645" />
    <path
       style="fill:#333333;stroke-width:0.00667255"
       d="m 116.40249,135.4487 c -0.0847,-0.0228 -0.15209,-0.0878 -0.18153,-0.17523 -0.0114,-0.0336 -0.0138,-0.0576 -0.0138,-0.134 v -0.0931 l -0.11175,-0.002 c -0.097,-0.002 -0.11685,-0.005 -0.15037,-0.0178 -0.0541,-0.0214 -0.11221,-0.0769 -0.1399,-0.13331 l -0.0217,-0.0444 v -0.35031 -0.35031 l 0.0188,-0.0383 c 0.0279,-0.0568 0.0776,-0.10766 0.13026,-0.13328 0.0439,-0.0213 0.0456,-0.0217 0.1595,-0.0241 l 0.1151,-0.002 v -0.0949 c 0,-0.10742 0.007,-0.13695 0.046,-0.19846 0.026,-0.0408 0.0744,-0.0801 0.12573,-0.10207 0.0316,-0.0136 0.0388,-0.0136 1.55936,-0.0154 1.68807,-0.002 1.56942,-0.005 1.64075,0.0407 0.0431,0.0276 0.0759,0.065 0.10172,0.11597 l 0.0195,0.0385 v 0.76401 0.76401 l -0.0194,0.0395 c -0.0238,0.0487 -0.057,0.0861 -0.10103,0.11444 -0.0723,0.0464 0.0578,0.043 -1.624,0.0425 -1.28382,-3.6e-4 -1.52386,-0.002 -1.55335,-0.0103 z m 3.0673,-0.18643 c 0.0103,-0.006 0.0253,-0.0178 0.0331,-0.0276 0.0139,-0.0177 0.0139,-0.0178 0.0139,-0.73111 0,-0.78763 0.002,-0.73913 -0.0421,-0.76638 -0.021,-0.0128 -0.0454,-0.013 -1.51455,-0.013 -1.64347,-2e-5 -1.52551,-0.003 -1.55271,0.0413 -0.0133,0.0219 -0.0135,0.0292 -0.0119,0.74036 0.002,0.7076 0.002,0.71848 0.015,0.73322 0.0307,0.0344 -0.0534,0.0326 1.54669,0.033 1.30574,2.5e-4 1.49571,-0.001 1.51242,-0.009 z m -1.84804,-0.1753 c 0,-0.002 0.23329,-0.23793 0.52963,-0.53459 0.0195,-0.0195 0.0392,-0.0393 0.0592,-0.0593 l 0.58886,-0.58884 0.17014,-2e-5 c 0.14536,-3e-5 0.17489,0.002 0.20278,0.0116 0.0422,0.0152 0.0832,0.0517 0.10423,0.0926 l 0.0166,0.0325 0.002,0.44646 c 0.002,0.40278 7.1e-4,0.44975 -0.009,0.48008 -0.0155,0.0466 -0.0607,0.0935 -0.10697,0.11085 -0.0356,0.0133 -0.0486,0.0136 -0.79665,0.0136 -0.41823,0 -0.76042,-0.002 -0.76042,-0.005 z m -1.41457,-0.58884 v -0.36032 h -0.0891 c -0.0816,0 -0.091,0.001 -0.11164,0.0153 -0.0124,0.008 -0.0263,0.0226 -0.0309,0.0317 -0.007,0.0124 -0.008,0.0902 -0.008,0.31791 l -1e-4,0.30141 0.0178,0.0212 c 0.0103,0.0116 0.0241,0.0237 0.0317,0.0268 0.008,0.003 0.0537,0.006 0.10229,0.006 l 0.0884,3.4e-4 z"
       id="path3497"
       sodipodi:nodetypes="ccscccccccccccscccccccccccccccscccccccccscccccccccsccccsccccccccc" />
  </g>
  <g
     inkscape:groupmode="layer"
     id="layer2"
     inkscape:label="Layer 2">
    <path
       d="m 2.9275301,3.6148201 c 0,-0.00201 0.23329,-0.23793 0.5296299,-0.5345901 0.0195,-0.0195 0.0392,-0.0393 0.0592,-0.0593 l 0.5888601,-0.5888398 0.1701401,-2e-5 c 0.14536,-3.01e-5 0.1748898,0.002 0.2027798,0.0116 0.0422,0.0152 0.0832,0.0517 0.10423,0.0926 l 0.0166,0.0325 0.00201,0.4464599 c 0.00201,0.4027802 7.144e-4,0.4497501 -0.009,0.48008 -0.015499,0.0466 -0.0607,0.0935 -0.10697,0.1108499 -0.0356,0.013301 -0.0486,0.0136 -0.7966501,0.0136 -0.4182301,0 -0.7604199,-0.00201 -0.7604199,-0.005 z"
       style="fill:#ff0000;stroke-width:0.00176545"
       id="path3917" />
  </g>
</svg>
