<?xml version="1.0" encoding="UTF-8" standalone="no"?>
<!-- Created with Inkscape (http://www.inkscape.org/) -->

<svg
   width="23"
   height="22.99999"
   viewBox="0 0 6.0854164 6.085414"
   version="1.1"
   id="svg1071"
   inkscape:version="1.1.1 (c3084ef, 2021-09-22)"
   sodipodi:docname="ralenti.svg"
   xmlns:inkscape="http://www.inkscape.org/namespaces/inkscape"
   xmlns:sodipodi="http://sodipodi.sourceforge.net/DTD/sodipodi-0.dtd"
   xmlns="http://www.w3.org/2000/svg"
   xmlns:svg="http://www.w3.org/2000/svg">
  <sodipodi:namedview
     id="namedview1073"
     pagecolor="#ed8383"
     bordercolor="#999999"
     borderopacity="1"
     inkscape:pageshadow="0"
     inkscape:pageopacity="0"
     inkscape:pagecheckerboard="0"
     inkscape:document-units="mm"
     showgrid="false"
     fit-margin-top="0"
     fit-margin-left="0"
     fit-margin-right="0"
     fit-margin-bottom="0"
     units="px"
     inkscape:zoom="8.8011651"
     inkscape:cx="13.691369"
     inkscape:cy="23.008317"
     inkscape:window-width="1920"
     inkscape:window-height="967"
     inkscape:window-x="1934"
     inkscape:window-y="92"
     inkscape:window-maximized="0"
     inkscape:current-layer="layer1" />
  <defs
     id="defs1068" />
  <g
     inkscape:label="Layer 1"
     inkscape:groupmode="layer"
     id="layer1"
     transform="translate(-87.837118,-77.420846)">
    <ellipse
       style="opacity:0.99;fill:#ff8e04;fill-opacity:1;stroke:#ffffff;stroke-width:0.0343595"
       id="path846-8-6"
       cx="90.879822"
       cy="80.463562"
       rx="2.9746075"
       ry="2.9782884" />
    <path
       style="fill:#ffffff;stroke-width:0.0130743"
       d="m 90.670863,83.502888 c -0.02515,-0.0031 -0.101587,-0.01165 -0.169859,-0.01936 -0.659502,-0.07441 -1.34331,-0.415812 -1.810618,-0.903978 -0.433378,-0.452724 -0.707233,-0.998409 -0.816346,-1.626667 -0.03529,-0.203229 -0.04777,-0.572542 -0.02649,-0.784942 0.13769,-1.375647 1.153116,-2.471828 2.516281,-2.716384 0.148892,-0.02673 0.211802,-0.0305 0.509584,-0.03071 0.370623,-1.29e-4 0.480193,0.01184 0.768817,0.08483 0.986645,0.249487 1.805709,1.01508 2.125671,1.986904 0.119879,0.364112 0.165,0.679688 0.152667,1.067822 -0.04698,1.480043 -1.141653,2.703563 -2.610271,2.917589 -0.133081,0.01934 -0.548194,0.03554 -0.639413,0.02488 z m -0.0109,-0.610531 c 0.0052,-0.168453 0.02454,-0.211938 0.116037,-0.258674 0.0986,-0.05038 0.225758,-0.02015 0.289043,0.06868 0.02676,0.03761 0.03101,0.06079 0.03488,0.189991 0.0052,0.171168 -0.01276,0.158908 0.185067,0.12713 0.941924,-0.151314 1.728624,-0.812063 2.042784,-1.715751 0.05444,-0.156553 0.108994,-0.392578 0.121179,-0.524188 l 0.0087,-0.09485 -0.103139,-7.6e-5 c -0.128515,-9.2e-5 -0.189398,-0.01661 -0.246427,-0.0667 -0.114781,-0.10091 -0.08737,-0.304476 0.0498,-0.36964 0.03215,-0.01526 0.08141,-0.02147 0.1706,-0.02147 h 0.125421 v -0.04353 c 0,-0.02393 -0.01163,-0.107814 -0.02582,-0.186422 -0.168092,-0.930025 -0.841421,-1.703757 -1.740409,-1.999944 -0.17498,-0.05765 -0.392355,-0.105902 -0.513811,-0.114049 l -0.06533,-0.0041 -0.0065,0.139757 c -0.0072,0.153994 -0.02099,0.186064 -0.104391,0.242901 -0.06039,0.04115 -0.175084,0.04115 -0.23546,0 -0.08342,-0.05683 -0.0972,-0.0889 -0.104402,-0.242901 l -0.0065,-0.139757 -0.0588,0.0035 c -0.118492,0.0075 -0.349518,0.05842 -0.51977,0.114507 -0.669028,0.220433 -1.214846,0.700517 -1.523997,1.340452 -0.128266,0.265513 -0.216051,0.561993 -0.238881,0.806782 l -0.0077,0.08282 h 0.127313 c 0.14611,0 0.198781,0.01815 0.25077,0.08638 0.05926,0.07778 0.05742,0.206936 -0.004,0.280006 -0.0542,0.06447 -0.102283,0.08196 -0.244621,0.08889 l -0.129099,0.0064 0.0086,0.09302 c 0.02011,0.217495 0.112307,0.537275 0.223546,0.775616 0.196312,0.420616 0.521989,0.798035 0.916796,1.062444 0.217226,0.145474 0.500429,0.274577 0.749063,0.341466 0.124582,0.03352 0.350827,0.07592 0.413725,0.07756 l 0.04136,0.001 0.0046,-0.147176 z m 0.136851,-1.991336 c -0.08288,-0.02956 -0.165122,-0.123536 -0.165122,-0.188628 0,-0.01891 -0.157315,-0.144952 -0.578183,-0.463358 -0.317997,-0.240582 -0.588967,-0.449515 -0.602152,-0.464286 -0.01317,-0.01478 -0.02716,-0.05078 -0.03107,-0.07997 -0.01461,-0.109209 0.05618,-0.189449 0.167176,-0.189449 0.05629,0 0.07276,0.0082 0.183916,0.09197 0.06715,0.05058 0.333204,0.251876 0.591242,0.447322 0.258033,0.195435 0.479346,0.35534 0.491801,0.35534 0.01245,0 0.03426,-0.01029 0.04841,-0.02289 0.0142,-0.01259 0.326989,-0.339449 0.695147,-0.726351 0.36816,-0.386905 0.686196,-0.712165 0.706738,-0.7228 0.07094,-0.03672 0.152775,-0.01536 0.207365,0.05411 0.03112,0.03957 0.03673,0.137554 0.01049,0.182988 -0.0087,0.01512 -0.3225,0.348767 -0.697268,0.741443 -0.636033,0.66642 -0.682024,0.71771 -0.690789,0.770531 -0.01254,0.07552 -0.03494,0.116548 -0.09021,0.165128 -0.0449,0.0395 -0.118287,0.06843 -0.170885,0.06742 -0.01435,-3.9e-4 -0.04882,-0.0086 -0.0766,-0.01849 z"
       id="path7243"
       sodipodi:nodetypes="scsscssssscsscsccssscsccscscsscssssccssscsscscsssscccccssccsssscsscssccscc" />
  </g>
</svg>
