<?xml version="1.0" encoding="UTF-8" standalone="no"?>
<!-- Created with Inkscape (http://www.inkscape.org/) -->

<svg
   width="450.82938"
   height="105.67947"
   viewBox="0 0 119.28194 27.961026"
   version="1.1"
   id="svg5"
   inkscape:version="1.1.1 (c3084ef, 2021-09-22)"
   sodipodi:docname="wtraking-logo.svg"
   xmlns:inkscape="http://www.inkscape.org/namespaces/inkscape"
   xmlns:sodipodi="http://sodipodi.sourceforge.net/DTD/sodipodi-0.dtd"
   xmlns="http://www.w3.org/2000/svg"
   xmlns:svg="http://www.w3.org/2000/svg">
  <sodipodi:namedview
     id="namedview7"
     pagecolor="#ffffff"
     bordercolor="#999999"
     borderopacity="1"
     inkscape:pageshadow="0"
     inkscape:pageopacity="0"
     inkscape:pagecheckerboard="0"
     inkscape:document-units="mm"
     showgrid="false"
     fit-margin-top="0"
     fit-margin-left="0"
     fit-margin-right="0"
     fit-margin-bottom="0"
     units="px"
     inkscape:zoom="0.86161636"
     inkscape:cx="222.25669"
     inkscape:cy="156.10196"
     inkscape:window-width="1312"
     inkscape:window-height="1027"
     inkscape:window-x="388"
     inkscape:window-y="25"
     inkscape:window-maximized="0"
     inkscape:current-layer="layer1" />
  <defs
     id="defs2" />
  <g
     inkscape:label="Layer 1"
     inkscape:groupmode="layer"
     id="layer1"
     transform="translate(-49.739613,-89.103365)">
    <path
       d="m 59.291601,114.70236 -3.745763,-2.36003 2.015975,-1.17543 c 1.108785,-0.64647 2.195333,-1.27096 2.414549,-1.38771 0.286044,-0.15236 1.110181,-0.0429 2.91902,0.38774 2.846843,0.67772 7.627508,2.09211 7.869937,2.32836 0.212976,0.20755 -6.76567,4.57166 -7.306439,4.5691 -0.231832,-8.2e-4 -2.107108,-1.06402 -4.167279,-2.36203 z m -7.328919,-4.60752 c -1.92142,-1.17664 -2.2104,-1.42989 -2.216293,-1.94227 -0.006,-0.52438 0.05865,-0.57803 0.587839,-0.48764 1.862978,0.31824 5.729205,1.01507 6.725362,1.21214 l 1.157605,0.22902 -1.806276,1.08736 c -0.993451,0.59803 -1.903576,1.12494 -2.022499,1.17089 -0.118922,0.0459 -1.210505,-0.52533 -2.425738,-1.2695 z m 17.885729,0.55801 c -1.248693,-0.42076 -3.473392,-1.07696 -4.943777,-1.45824 l -2.673428,-0.69322 2.348473,-1.03445 c 3.184952,-1.40289 5.420433,-2.13893 6.457963,-2.1263 0.475689,0.006 2.032499,0.33556 3.459575,0.73282 l 2.594684,0.7223 0.05377,0.97302 0.05377,0.973 -2.090849,1.28034 c -1.149963,0.70418 -2.293128,1.30631 -2.540354,1.33804 -0.247227,0.0317 -1.471165,-0.28655 -2.719858,-0.70731 z m -13.770907,-3.40281 c -1.925155,-0.37392 -3.559642,-0.7392 -3.632194,-0.81175 -0.126551,-0.12655 3.565239,-1.54332 6.668577,-2.55915 l 1.482112,-0.48515 3.071494,0.4653 c 1.689322,0.25591 3.348128,0.53927 3.68623,0.6297 0.610327,0.16322 0.607949,0.16643 -0.331008,0.44776 -0.520163,0.15584 -2.309811,0.90545 -3.976994,1.66579 -1.667185,0.76036 -3.1295,1.37005 -3.249589,1.35489 -0.120089,-0.0152 -1.793472,-0.33348 -3.718628,-0.70739 z m -6.337891,-3.15913 v -1.77811 l 1.351398,0.12723 c 0.743268,0.07 2.129802,0.18348 3.081186,0.25224 3.120877,0.22553 3.117983,0.23624 -0.432936,1.60178 -1.783576,0.68589 -3.413142,1.32085 -3.621257,1.41102 -0.342988,0.14861 -0.378391,-0.002 -0.378391,-1.61416 z"
       style="fill:#e2021a;fill-opacity:1;stroke-width:0.0572091"
       id="path3244"
       sodipodi:nodetypes="sccscscscccscccccscscccccccccssscscsscssccssss" />
    <path
       d="m 74.821557,104.7162 c -3.091882,-0.86165 -7.915582,-1.82724 -12.269594,-2.45604 -3.932337,-0.56792 -10.106523,-1.19433 -11.771749,-1.19433 h -1.040601 v -4.810998 -4.810996 l 5.567758,-1.457847 c 3.127481,-0.81889 10.564772,-1.532213 16.756041,0.102407 l 5.134025,1.355482 0.0016,6.973212 c 6.54e-4,3.83527 -0.02304,6.96391 -0.05279,6.95252 -0.02975,-0.0114 -1.075711,-0.30541 -2.324404,-0.65341 z M 64.5775,99.281988 l 1.054549,-0.486502 -1.142422,-0.06562 c -0.628333,-0.03612 -1.601339,-0.03612 -2.162236,0 l -1.019815,0.06562 0.864895,0.476948 c 1.085201,0.598439 1.1282,0.598609 2.405029,0.0096 z m 1.162661,-3.405525 V 93.93045 h -2.270348 -2.270349 v 1.946013 1.946012 h 2.270349 2.270348 z m -5.621815,0 v -0.864894 h -4.108249 -4.108248 v 0.864894 0.864895 h 4.108248 4.108249 z m 14.919432,0 v -0.864894 h -4.108246 -4.108254 v 0.864894 0.864895 h 4.108254 4.108246 z"
       style="fill:#000000;fill-opacity:1;stroke-width:0.0572091"
       id="path6808"
       sodipodi:nodetypes="ccscccssccccccccccsccccccccccccccccccccccccccccc" />
    <text
       xml:space="preserve"
       style="font-style:normal;font-weight:normal;font-size:19.7556px;line-height:1.25;font-family:sans-serif;fill:#000000;fill-opacity:1;stroke:none;stroke-width:0.264583"
       x="78.925217"
       y="106.58455"
       id="text1112"><tspan
         sodipodi:role="line"
         id="tspan1110"
         style="font-style:normal;font-variant:normal;font-weight:bold;font-stretch:normal;font-size:19.7556px;font-family:Roboto;-inkscape-font-specification:'Roboto Bold';stroke-width:0.264583"
         x="78.925217"
         y="106.58455">wTracking</tspan></text>
    <text
       xml:space="preserve"
       style="font-style:normal;font-weight:normal;font-size:10.5833px;line-height:1.25;font-family:sans-serif;fill:#000000;fill-opacity:1;stroke:none;stroke-width:0.264583"
       x="82.542717"
       y="113.38171"
       id="text5360"><tspan
         sodipodi:role="line"
         id="tspan5358"
         style="stroke-width:0.264583"
         x="82.542717"
         y="113.38171" /></text>
    <g
       id="layer2"
       inkscape:label="Layer 2"
       transform="translate(31.091256,72.754764)" />
  </g>
</svg>
