<?xml version="1.0" encoding="UTF-8" standalone="no"?>
<!-- Created with Inkscape (http://www.inkscape.org/) -->

<svg
   width="24.745008"
   height="24.5674"
   viewBox="0 0 6.5471168 6.5001247"
   version="1.1"
   id="svg954"
   inkscape:version="1.1.1 (c3084ef, 2021-09-22)"
   sodipodi:docname="deactualizado.svg"
   xmlns:inkscape="http://www.inkscape.org/namespaces/inkscape"
   xmlns:sodipodi="http://sodipodi.sourceforge.net/DTD/sodipodi-0.dtd"
   xmlns="http://www.w3.org/2000/svg"
   xmlns:svg="http://www.w3.org/2000/svg">
  <sodipodi:namedview
     id="namedview956"
     pagecolor="#919191"
     bordercolor="#999999"
     borderopacity="1"
     inkscape:pageshadow="0"
     inkscape:pageopacity="0"
     inkscape:pagecheckerboard="0"
     inkscape:document-units="mm"
     showgrid="false"
     units="px"
     width="25px"
     fit-margin-top="0"
     fit-margin-left="0"
     fit-margin-right="0"
     fit-margin-bottom="0"
     inkscape:zoom="5.6159371"
     inkscape:cx="14.690335"
     inkscape:cy="29.825832"
     inkscape:window-width="1312"
     inkscape:window-height="1027"
     inkscape:window-x="0"
     inkscape:window-y="25"
     inkscape:window-maximized="0"
     inkscape:current-layer="g1039" />
  <defs
     id="defs951" />
  <g
     inkscape:label="Layer 1"
     inkscape:groupmode="layer"
     id="layer1"
     transform="translate(-0.06144524,0.00377677)">
    <g
       id="g1039"
       transform="matrix(0.08784325,0,0,0.08784325,1.9737563,1.8340998)">
      <g
         id="g1044"
         transform="matrix(1.540999,0,0,1.540999,11.485117,8.6890514)">
        <ellipse
           style="opacity:0.99;fill:#ffffff;stroke:#ffffff;stroke-width:0.276563"
           id="path846-2-5-3"
           cx="2.6029904"
           cy="4.7937403"
           rx="24.044672"
           ry="23.871098" />
        <circle
           style="opacity:0.99;fill:#5398ff;fill-opacity:0.992157;stroke:#ffffff;stroke-width:0.264583"
           id="path846-8-8"
           cx="2.6029904"
           cy="4.7937403"
           r="22.91995" />
        <path
           style="fill:#ffffff;stroke-width:0.0628962"
           d="m 1.899088,24.34209 c -0.44694,-0.18813 -0.55885,-0.2685 -0.83633,-0.60063 -0.42134,-0.5043 -0.41762,-0.46051 -0.41762,-4.92554 0,-3.8965 0.004,-4.02102 0.12899,-4.33889 0.41864,-1.06209 1.60459,-1.52548 2.66348,-1.0407 0.39377,0.18027 0.80668,0.65325 0.93277,1.06846 0.11394,0.37517 0.11588,8.32402 0.002,8.69152 -0.30648,0.99011 -1.51417,1.54955 -2.47341,1.14578 z m -10.31472,-3.30875 c -0.27582,-0.09 -0.44989,-0.20303 -0.76092,-0.49396 -0.48427,-0.45298 -0.68413,-1.20321 -0.50052,-1.87882 0.071,-0.2612 0.4061,-0.79393 1.04394,-1.65955 0.19118,-0.25945 0.4274,-0.58494 0.52495,-0.72331 0.0975,-0.13837 0.64008,-0.88842 1.20565,-1.66676 0.56555,-0.77834 1.08764,-1.50008 1.16018,-1.60386 1.01865,-1.4573 1.50332,-1.80343 2.3962,-1.71128 0.89211,0.0921 1.55615,0.71049 1.72534,1.60678 0.0903,0.47814 -0.1006,1.13511 -0.46292,1.59349 -0.1261,0.15952 -0.26799,0.35429 -1.18882,1.63186 -0.2149,0.29816 -0.59421,0.82178 -0.84292,1.16359 -0.43832,0.60243 -1.23766,1.70832 -1.91976,2.656 -0.59638,0.82859 -1.00233,1.0885 -1.74776,1.11902 -0.25946,0.0106 -0.54414,-0.005 -0.63264,-0.0332 z m 20.798989,-0.0326 c -0.51904,-0.19316 -0.67382,-0.37232 -2.42954,-2.81228 -0.5016,-0.69708 -1.05868,-1.46879 -1.23795,-1.7149 -0.17928,-0.24611 -0.39156,-0.54019 -0.47173,-0.65351 -0.0802,-0.11333 -0.28728,-0.39705 -0.46025,-0.6305 -0.75373,-1.01728 -0.88909,-1.2535 -0.97185,-1.69591 -0.19674,-1.05178 0.61223,-2.08312 1.72397,-2.19786 0.75308,-0.0777 1.29909,0.22507 1.91595,1.06253 1.03411,1.40391 1.37006,1.86476 1.51455,2.07767 0.17025,0.25086 1.85018,2.57074 2.35282,3.2491 0.44548,0.6012 0.60196,0.97011 0.6027,1.42083 0.002,1.06984 -0.79051,1.90994 -1.85139,1.96319 -0.2836,0.0142 -0.53161,-0.0104 -0.68728,-0.0684 z m -27.063349,-8.84313 c -0.5878,-0.12136 -1.1242,-0.53902 -1.36556,-1.06327 -0.18842,-0.40926 -0.18759,-1.23905 0.002,-1.65032 0.1657,-0.36008 0.56827,-0.77199 0.88482,-0.90533 0.22853,-0.0963 1.38838,-0.48086 4.67152,-1.54904 0.84753,-0.27575 1.78505,-0.5828 2.08338,-0.68234 0.71371,-0.23814 1.10331,-0.28531 1.55849,-0.18871 0.91025,0.19316 1.62343,1.20174 1.48807,2.10439 -0.0576,0.3842 -0.3633,0.98898 -0.60096,1.18896 -0.33363,0.28073 -0.56218,0.37107 -2.64208,1.04432 -1.08969,0.35272 -2.09446,0.68086 -2.23283,0.72919 -1.17999,0.41215 -3.0293,0.97512 -3.27825,0.99796 -0.16877,0.0155 -0.42449,0.004 -0.56826,-0.0258 z m 33.722359,-0.008 c -0.22337,-0.0517 -1.61461,-0.5009 -6.00662,-1.93951 -0.70916,-0.23228 -1.37957,-0.46915 -1.4898,-0.52637 -0.6063,-0.31472 -0.9959,-0.98707 -0.99017,-1.7088 0.004,-0.53226 0.15431,-0.90577 0.52601,-1.30902 0.37713,-0.40913 0.79412,-0.57673 1.41934,-0.57047 0.43514,0.005 0.64347,0.052 1.54096,0.35215 0.57079,0.19091 1.84445,0.60907 2.83034,0.92923 3.74523,1.21623 3.62116,1.1688 3.97028,1.51791 0.32399,0.32398 0.50318,0.72658 0.54274,1.21938 0.0802,0.99882 -0.53354,1.80066 -1.5417,2.0143 -0.47705,0.10109 -0.45819,0.10059 -0.80138,0.0212 z M -7.877342,3.39251 c -0.24215,-0.0837 -0.80822,-0.26692 -1.25793,-0.40712 -0.44971,-0.1402 -1.63846,-0.51396 -2.64166,-0.83058 -1.00319,-0.31661 -2.05042,-0.6443 -2.32717,-0.72819 -1.22951,-0.37271 -1.6535,-0.65025 -1.93783,-1.26849 -0.19312,-0.41991 -0.19312,-1.24303 0,-1.66293 0.19034,-0.41387 0.63956,-0.83198 1.04243,-0.97023 0.60626,-0.20805 0.99018,-0.15585 2.49927,0.33983 0.74375,0.2443 2.37119,0.77596 3.61654,1.18147 1.24536,0.40551 2.36828,0.78964 2.49539,0.85363 0.89791,0.45198 1.2909,1.62035 0.84888,2.52379 -0.20241,0.41372 -0.50474,0.69922 -0.9622,0.90865 -0.49219,0.22534 -0.85237,0.24109 -1.37572,0.0602 z m 19.840739,0.0658 c -0.35147,-0.0987 -0.65653,-0.28354 -0.92139,-0.5581 -0.83968,-0.87044 -0.55694,-2.45228 0.53615,-2.9997 0.1271,-0.0637 1.20757,-0.4344 2.40103,-0.82387 1.19347,-0.38947 2.76431,-0.90309 3.49076,-1.14137 1.69853,-0.55713 1.95247,-0.60561 2.47267,-0.47214 0.95343,0.24464 1.51363,1.01288 1.44438,1.98079 -0.0383,0.53574 -0.21893,0.94083 -0.57078,1.28029 -0.28816,0.27803 -0.60588,0.42464 -1.52227,0.70243 -0.27674,0.0839 -1.32397,0.41158 -2.32717,0.72819 -1.0032,0.31662 -2.19194,0.69017 -2.64165,0.83011 -0.44971,0.13994 -0.9816,0.3088 -1.18199,0.37524 -0.49726,0.16489 -0.84052,0.19344 -1.17974,0.0981 z M -4.166452,-1.75224 c -0.31525,-0.11704 -0.70224,-0.47404 -1.10141,-1.01605 -1.07311,-1.45714 -1.36602,-1.85946 -1.52061,-2.08862 -0.093,-0.13784 -0.5095,-0.71762 -0.9256,-1.28841 -0.4161,-0.57078 -0.87778,-1.20646 -1.02597,-1.41262 -0.14819,-0.20616 -0.37617,-0.51749 -0.50663,-0.69186 -0.36299,-0.48518 -0.50415,-0.91981 -0.4707,-1.44917 0.0475,-0.75064 0.40035,-1.27058 1.09163,-1.60832 0.42236,-0.20635 1.19073,-0.21194 1.57338,-0.0114 0.50419,0.26419 0.52162,0.28436 1.91709,2.21726 0.31219,0.43242 0.7711,1.06588 1.0198,1.4077 0.24871,0.34181 0.62802,0.86543 0.84292,1.16359 0.93027,1.29067 1.0633,1.47297 1.197,1.64045 0.79768,0.9992 0.50012,2.44876 -0.62143,3.02731 -0.31768,0.16387 -1.1556,0.22669 -1.46947,0.11017 z m 12.236669,-10e-4 c -0.85419,-0.24519 -1.46863,-1.34844 -1.23789,-2.22267 0.0939,-0.35584 0.24722,-0.67612 0.44151,-0.92238 0.12985,-0.16459 0.38553,-0.51519 1.20755,-1.65584 0.22436,-0.31134 0.61415,-0.84911 0.86618,-1.19504 0.25203,-0.34593 0.8614,-1.18705 1.35414,-1.86914 0.92081,-1.27467 1.09503,-1.46697 1.5405,-1.7004 0.38266,-0.20051 1.15102,-0.19493 1.57339,0.0115 0.69128,0.33774 1.04417,0.85768 1.09162,1.60832 0.0335,0.52936 -0.10771,0.96399 -0.4707,1.44917 -0.13045,0.17436 -0.35843,0.4857 -0.50662,0.69186 -0.14819,0.20616 -0.60988,0.84184 -1.02598,1.41262 -0.41609,0.57079 -0.83261,1.15057 -0.92559,1.28841 -0.093,0.13784 -0.38134,0.5392 -0.64079,0.89194 -0.25945,0.35273 -0.64106,0.87314 -0.84803,1.15647 -0.45097,0.61736 -0.76646,0.8998 -1.15175,1.03108 -0.31797,0.10834 -0.93341,0.12008 -1.26754,0.0242 z M 1.997408,-3.73071 c -0.57216,-0.18212 -1.00155,-0.58601 -1.22459,-1.15186 -0.1278,-0.32423 -0.12997,-0.41021 -0.11326,-4.49182 0.017,-4.15633 0.0172,-4.1616 0.1571,-4.4534 0.18187,-0.37932 0.63064,-0.77003 1.07715,-0.93782 0.70541,-0.26506 1.55736,-0.0852 2.06424,0.43585 0.53573,0.55071 0.53566,0.54996 0.51046,5.22832 -0.0161,2.99375 -0.0413,4.05226 -0.10059,4.22686 -0.13635,0.4016 -0.55265,0.86313 -0.93746,1.0393 -0.43772,0.20039 -1.00252,0.24161 -1.43305,0.10457 z"
           id="path11292" />
      </g>
    </g>
  </g>
</svg>
