<?xml version="1.0" encoding="UTF-8" standalone="no"?>
<!-- Created with Inkscape (http://www.inkscape.org/) -->

<svg
   width="24.991943"
   height="24.812561"
   viewBox="0 0 6.6124514 6.5649901"
   version="1.1"
   id="svg913"
   inkscape:version="1.1.1 (c3084ef, 2021-09-22)"
   sodipodi:docname="disconnected.svg"
   xmlns:inkscape="http://www.inkscape.org/namespaces/inkscape"
   xmlns:sodipodi="http://sodipodi.sourceforge.net/DTD/sodipodi-0.dtd"
   xmlns="http://www.w3.org/2000/svg"
   xmlns:svg="http://www.w3.org/2000/svg">
  <sodipodi:namedview
     id="namedview915"
     pagecolor="#a43737"
     bordercolor="#999999"
     borderopacity="1"
     inkscape:pageshadow="0"
     inkscape:pageopacity="0"
     inkscape:pagecheckerboard="0"
     inkscape:document-units="mm"
     showgrid="false"
     units="px"
     fit-margin-top="0"
     fit-margin-left="0"
     fit-margin-right="0"
     fit-margin-bottom="0"
     inkscape:zoom="11.724364"
     inkscape:cx="12.58064"
     inkscape:cy="20.51284"
     inkscape:window-width="1440"
     inkscape:window-height="847"
     inkscape:window-x="3840"
     inkscape:window-y="44"
     inkscape:window-maximized="1"
     inkscape:current-layer="layer1" />
  <defs
     id="defs910" />
  <g
     inkscape:label="Layer 1"
     inkscape:groupmode="layer"
     id="layer1"
     transform="translate(-64.766284,-86.046462)">
    <ellipse
       style="opacity:0.99;fill:#ffffff;stroke:#ffffff;stroke-width:0.0378109"
       id="path846-2-5-0-1"
       cx="68.07251"
       cy="89.328957"
       rx="3.2873204"
       ry="3.2635896" />
    <circle
       style="opacity:0.99;fill:#ffd802;fill-opacity:1;stroke:#ffffff;stroke-width:0.0361732"
       id="path846-8-2-8"
       cx="68.07251"
       cy="89.328957"
       r="3.1335514" />
    <path
       style="fill:#ffffff;stroke-width:0.00640515"
       d="m 67.996453,92.024746 c -0.09922,-0.03815 -0.137807,-0.151122 -0.08733,-0.25571 0.03637,-0.07536 0.06715,-0.08717 0.249382,-0.09581 0.255846,-0.01203 0.52151,-0.06706 0.751783,-0.155474 0.111372,-0.04276 0.387195,-0.181107 0.403524,-0.202401 0.0061,-0.0079 0.113531,-0.07783 0.119597,-0.07783 0.0032,0 0.01451,-0.008 0.0249,-0.01796 0.01034,-0.0098 0.04755,-0.04086 0.08269,-0.06885 0.11353,-0.09051 0.241802,-0.215819 0.320498,-0.313107 0.01401,-0.01739 0.03303,-0.03901 0.04212,-0.04804 0.009,-0.009 0.01994,-0.02278 0.0241,-0.03054 0.0095,-0.01792 0.07519,-0.109824 0.09053,-0.126798 0.01534,-0.01696 0.06421,-0.09771 0.06421,-0.106066 0,-0.0036 0.01169,-0.02446 0.02615,-0.04632 0.03119,-0.04741 0.127558,-0.240242 0.127558,-0.255262 4e-6,-0.0058 0.0084,-0.0303 0.01863,-0.05445 0.07224,-0.170303 0.12314,-0.376713 0.142735,-0.578737 0.01071,-0.1105 0.01087,-0.412939 1.35e-4,-0.525225 -0.02735,-0.289056 -0.118525,-0.577976 -0.265746,-0.842279 -0.02159,-0.03874 -0.04483,-0.08199 -0.05164,-0.09608 -0.0067,-0.01417 -0.01418,-0.02705 -0.01649,-0.02882 -0.0023,-0.0018 -0.02609,-0.03635 -0.05293,-0.07686 -0.02684,-0.04052 -0.05633,-0.08065 -0.06548,-0.08919 -0.0091,-0.0085 -0.01667,-0.0187 -0.01667,-0.0226 0,-0.0073 -0.06943,-0.09586 -0.08829,-0.11246 -0.0061,-0.0053 -0.03404,-0.03547 -0.06223,-0.06704 -0.02818,-0.03156 -0.05989,-0.06464 -0.07044,-0.0735 -0.01056,-0.0088 -0.04372,-0.03933 -0.07367,-0.06766 -0.06048,-0.05728 -0.110647,-0.09919 -0.118657,-0.09919 -0.0029,0 -0.02133,-0.01385 -0.04097,-0.0309 -0.01963,-0.01698 -0.0631,-0.04934 -0.09657,-0.07187 -0.03347,-0.02253 -0.06181,-0.04322 -0.06298,-0.04597 -0.0012,-0.0028 -0.0056,-0.005 -0.0099,-0.005 -0.0043,0 -0.02787,-0.01187 -0.05231,-0.02632 -0.02445,-0.01451 -0.06316,-0.03741 -0.08609,-0.05093 -0.05082,-0.03007 -0.123683,-0.06255 -0.262608,-0.117141 -0.179136,-0.07036 -0.264211,-0.09264 -0.467579,-0.12235 -0.156892,-0.0229 -0.235497,-0.02912 -0.368295,-0.02911 -0.162857,2.7e-5 -0.335583,0.01811 -0.528428,0.05532 -0.06812,0.01318 -0.223594,0.06454 -0.31946,0.105606 -0.04008,0.01717 -0.07675,0.03122 -0.0815,0.03122 -0.01087,0 -0.18902,0.09193 -0.22355,0.115328 -0.01401,0.0095 -0.04581,0.02819 -0.07044,0.04144 -0.02466,0.01319 -0.083,0.05255 -0.129632,0.08738 -0.04664,0.03482 -0.08757,0.06331 -0.09095,0.06331 -0.0035,0 -0.0084,0.0039 -0.0112,0.0087 -0.0028,0.0048 -0.02673,0.02669 -0.05312,0.0487 -0.05888,0.04907 -0.139866,0.126666 -0.208926,0.200171 -0.04882,0.05197 -0.170924,0.198616 -0.185022,0.222228 -0.0035,0.0059 -0.02516,0.03897 -0.04804,0.07352 -0.02289,0.03454 -0.05112,0.07765 -0.06271,0.09581 -0.02571,0.04031 -0.170339,0.331712 -0.180108,0.362901 -0.0039,0.01236 -0.01984,0.06133 -0.03549,0.108885 -0.04518,0.13723 -0.0783,0.287886 -0.09784,0.445021 -0.01549,0.124474 -0.01533,0.421082 2.73e-4,0.534968 0.02372,0.172751 0.05846,0.327589 0.103427,0.46083 0.01235,0.0368 0.02258,0.07084 0.02258,0.07562 0,0.01615 0.08614,0.206572 0.154319,0.341055 0.01615,0.03194 0.09402,0.154023 0.10974,0.172126 0.01034,0.01187 0.02203,0.02918 0.02604,0.03844 0.0076,0.01803 0.05619,0.08414 0.07471,0.102041 0.02084,0.02017 0.08358,0.09691 0.08358,0.102243 0,0.0075 0.04279,0.04638 0.07703,0.06995 0.09991,0.06879 0.211181,0.09291 0.321134,0.0696 0.04641,-0.0098 0.130457,-0.04615 0.161834,-0.06992 0.01087,-0.0082 0.02287,-0.01615 0.02677,-0.0175 0.0112,-0.0041 0.06001,-0.063 0.08447,-0.101888 0.01219,-0.01937 0.03168,-0.04985 0.04331,-0.06767 0.01169,-0.01785 0.02863,-0.0494 0.03779,-0.07012 0.0091,-0.02073 0.02309,-0.04648 0.03094,-0.05723 0.0079,-0.01071 0.02129,-0.03251 0.02989,-0.04836 0.0085,-0.01582 0.028,-0.04899 0.04311,-0.07367 0.04589,-0.07489 0.05092,-0.08637 0.04065,-0.09273 -0.03606,-0.02227 -0.129089,-0.11813 -0.180108,-0.185547 -0.06062,-0.08011 -0.114554,-0.16363 -0.114687,-0.177581 -3.8e-5,-0.0041 -0.0098,-0.02718 -0.02193,-0.05124 -0.1384,-0.276953 -0.141269,-0.65203 -0.0072,-0.938964 0.01599,-0.03418 0.02904,-0.06477 0.02904,-0.06798 0,-0.0056 0.05521,-0.100576 0.108866,-0.187216 0.01451,-0.02329 0.03694,-0.06362 0.05008,-0.08966 0.01319,-0.02604 0.03477,-0.06464 0.04814,-0.08578 0.0233,-0.03685 0.0768,-0.125215 0.09126,-0.150776 0.0038,-0.0067 0.01765,-0.02075 0.03079,-0.03119 0.04372,-0.03474 0.135269,-0.03529 0.188573,-0.001 0.01648,0.01056 0.05809,0.03361 0.09248,0.05124 0.03439,0.01762 0.07476,0.04031 0.08966,0.05044 0.02252,0.01532 0.12993,0.07826 0.164838,0.0967 0.02994,0.01582 0.08735,0.04842 0.111638,0.06343 0.09154,0.05662 0.140344,0.08458 0.147513,0.08458 0.0044,0 0.01499,0.0053 0.02342,0.01187 0.0084,0.0064 0.04699,0.02995 0.08573,0.05208 0.03876,0.02213 0.07505,0.04423 0.08067,0.04911 0.0056,0.005 0.03732,0.02274 0.07044,0.0397 0.06169,0.03157 0.214652,0.121936 0.242048,0.142982 0.0084,0.0064 0.01881,0.01169 0.02311,0.01169 0.0082,0 0.09192,0.04699 0.15058,0.08461 0.01937,0.01237 0.05684,0.03415 0.08327,0.04829 0.06918,0.03702 0.170709,0.0957 0.210071,0.121411 0.01866,0.01219 0.05696,0.03386 0.08511,0.04813 0.06104,0.03097 0.09763,0.069 0.111587,0.115955 0.01614,0.05425 0.01105,0.08519 -0.02403,0.14824 -0.01137,0.02057 -0.03285,0.06004 -0.04751,0.08768 -0.01467,0.02764 -0.03897,0.06827 -0.05401,0.09027 -0.01499,0.022 -0.04194,0.0677 -0.05978,0.101541 -0.04913,0.0931 -0.116253,0.203306 -0.147828,0.24272 -0.01549,0.01937 -0.02833,0.03912 -0.02851,0.04389 -1.28e-4,0.0048 -0.03845,0.04674 -0.08512,0.0933 -0.08608,0.08584 -0.138532,0.13184 -0.150347,0.13184 -0.0036,0 -0.02635,0.01451 -0.05058,0.03221 -0.04322,0.0316 -0.176007,0.100215 -0.220209,0.113779 -0.178994,0.0549 -0.256957,0.06796 -0.406727,0.06807 -0.130242,6.5e-5 -0.20741,-0.01072 -0.316168,-0.04399 -0.08893,-0.02725 -0.08763,-0.02738 -0.109907,0.01105 -0.01071,0.0184 -0.02836,0.05219 -0.0393,0.07509 -0.01087,0.02289 -0.02369,0.04603 -0.02835,0.05141 -0.0047,0.0055 -0.02981,0.0515 -0.0559,0.102488 -0.07714,0.150809 -0.0974,0.180519 -0.199098,0.292084 -0.01724,0.0189 -0.04606,0.04418 -0.06406,0.05616 -0.018,0.01203 -0.04426,0.03103 -0.05833,0.04232 -0.03682,0.02951 -0.15788,0.08564 -0.217776,0.10099 -0.1735,0.04442 -0.401018,0.02707 -0.536426,-0.04089 -0.05672,-0.02846 -0.134264,-0.07774 -0.141235,-0.08973 -0.0028,-0.0048 -0.0087,-0.0088 -0.01301,-0.0088 -0.01252,0 -0.132318,-0.120026 -0.132501,-0.132733 -3.7e-5,-0.0028 -0.0099,-0.01467 -0.02217,-0.02643 -0.0623,-0.06054 -0.278816,-0.369518 -0.278816,-0.397899 0,-0.0039 -0.0099,-0.02301 -0.02248,-0.04235 -0.03304,-0.05167 -0.117966,-0.222829 -0.122696,-0.247339 -0.0023,-0.01169 -0.01056,-0.03555 -0.01854,-0.05316 -0.04671,-0.103459 -0.119878,-0.336557 -0.130424,-0.415512 -0.0032,-0.02513 -0.01319,-0.08458 -0.02192,-0.132121 -0.02894,-0.158242 -0.03888,-0.276936 -0.03866,-0.461173 1.26e-4,-0.09337 0.0038,-0.202883 0.0082,-0.243395 0.01056,-0.09713 0.03148,-0.237031 0.04273,-0.28503 0.005,-0.02114 0.009,-0.04905 0.009,-0.06205 1.27e-4,-0.03885 0.05346,-0.212143 0.10198,-0.331538 0.02499,-0.06147 0.04541,-0.115097 0.04541,-0.119151 0,-0.0096 0.06169,-0.140296 0.08001,-0.169329 0.0079,-0.01252 0.03015,-0.05313 0.04946,-0.09025 0.03554,-0.06833 0.1193,-0.20069 0.145636,-0.230072 0.0079,-0.0087 0.01882,-0.02466 0.02429,-0.03525 0.01352,-0.02627 0.06293,-0.09125 0.08987,-0.118344 0.01219,-0.01219 0.03521,-0.03964 0.05116,-0.06084 0.01599,-0.02123 0.05093,-0.06034 0.07773,-0.08694 0.0268,-0.0266 0.06314,-0.06445 0.08076,-0.08411 0.01761,-0.01966 0.05796,-0.05772 0.08966,-0.08459 0.03171,-0.02686 0.07927,-0.06775 0.105685,-0.09085 0.02642,-0.02311 0.05382,-0.04436 0.06084,-0.04723 0.007,-0.0029 0.02866,-0.01806 0.04804,-0.03374 0.01938,-0.01565 0.05828,-0.0441 0.08647,-0.06312 0.02818,-0.01902 0.05354,-0.03823 0.05636,-0.04268 0.0028,-0.0044 0.0088,-0.008 0.01368,-0.008 0.0075,0 0.06886,-0.03444 0.131741,-0.07404 0.106578,-0.06715 0.461883,-0.217492 0.550844,-0.233093 0.01582,-0.0028 0.05477,-0.01285 0.08647,-0.02227 0.06522,-0.01946 0.220081,-0.0496 0.329866,-0.06417 0.278447,-0.03696 0.557739,-0.02753 0.848686,0.02864 0.105719,0.02043 0.30026,0.06876 0.355485,0.08834 0.06821,0.02419 0.1998,0.07849 0.243606,0.100567 0.02437,0.01219 0.0481,0.02231 0.05275,0.02231 0.01385,0 0.1739,0.08764 0.227432,0.124508 0.0186,0.01285 0.04106,0.02602 0.0499,0.02939 0.02011,0.0075 0.08625,0.05206 0.124459,0.08358 0.01582,0.01302 0.04763,0.03633 0.07062,0.05169 0.02298,0.01533 0.07586,0.05817 0.117486,0.09515 0.04162,0.03697 0.07902,0.06869 0.08311,0.07045 0.01252,0.0055 0.171454,0.172618 0.225236,0.236992 0.02797,0.03347 0.05431,0.06303 0.05857,0.06572 0.0043,0.0026 0.02142,0.02575 0.03815,0.05124 0.01672,0.0255 0.04655,0.06798 0.06624,0.09442 0.03656,0.04902 0.08156,0.117685 0.09725,0.148402 0.0048,0.0093 0.0273,0.04977 0.05,0.08966 0.06455,0.11353 0.08955,0.16213 0.102287,0.198778 0.0064,0.01866 0.03523,0.09107 0.06384,0.160912 0.05659,0.138021 0.079,0.212132 0.108884,0.359812 0.0456,0.225369 0.05743,0.323979 0.06266,0.522021 0.0058,0.217067 -0.01104,0.399094 -0.05604,0.610721 -0.01056,0.04985 -0.02198,0.106577 -0.02531,0.126042 -0.01219,0.0717 -0.06263,0.219689 -0.122068,0.357953 -0.01729,0.0402 -0.03142,0.07624 -0.03141,0.08006 0,0.0085 -0.08193,0.169744 -0.09307,0.183113 -0.0044,0.0053 -0.02459,0.04132 -0.04485,0.08006 -0.02027,0.03874 -0.03873,0.07191 -0.04103,0.07365 -0.0023,0.0018 -0.02668,0.03592 -0.05417,0.07588 -0.02748,0.03998 -0.05546,0.07817 -0.06216,0.08487 -0.0067,0.0067 -0.01219,0.01484 -0.01219,0.0182 0,0.0076 -0.06489,0.08754 -0.1149,0.141284 -0.02129,0.0229 -0.03874,0.04414 -0.03877,0.04722 0,0.0031 -0.04294,0.04773 -0.09539,0.09928 -0.109889,0.107994 -0.131215,0.127556 -0.157665,0.144515 -0.01056,0.0067 -0.03506,0.02716 -0.05443,0.04529 -0.03686,0.0345 -0.09948,0.08356 -0.13212,0.103543 -0.01056,0.0064 -0.06554,0.04272 -0.122202,0.08059 -0.05668,0.03788 -0.106196,0.06885 -0.110037,0.06885 -0.0038,0 -0.03624,0.01614 -0.07197,0.03598 -0.08691,0.04811 -0.231645,0.117734 -0.244761,0.117734 -0.0058,0 -0.04155,0.01252 -0.07944,0.02782 -0.151848,0.06128 -0.346589,0.115393 -0.46283,0.12861 -0.01582,0.002 -0.05765,0.0076 -0.09288,0.0132 -0.108044,0.01663 -0.257231,0.02902 -0.345307,0.02865 -0.06774,-2.71e-4 -0.09019,-0.0028 -0.116959,-0.01302 z m -0.373117,-1.844094 c 0.0058,-0.0053 0.04126,-0.03547 0.07871,-0.06713 0.03746,-0.03162 0.06811,-0.05962 0.06811,-0.06222 0,-0.0026 0.01658,-0.01599 0.03683,-0.02995 0.02025,-0.01385 0.06278,-0.0495 0.09448,-0.0791 0.0317,-0.02962 0.0735,-0.0656 0.09288,-0.07994 0.01937,-0.01433 0.05123,-0.04153 0.07075,-0.06045 0.01952,-0.0189 0.04666,-0.04327 0.06027,-0.05416 0.0241,-0.01927 0.02674,-0.03466 0.0059,-0.03466 -0.0053,0 -0.02886,-0.01252 -0.05247,-0.0277 -0.02357,-0.01517 -0.0695,-0.04279 -0.10201,-0.06126 -0.03251,-0.01846 -0.06072,-0.03612 -0.06264,-0.03927 -0.0036,-0.0058 0.03665,-0.08576 0.07245,-0.144004 0.0592,-0.09634 0.09095,-0.15221 0.09095,-0.160039 0,-0.0048 0.0038,-0.01252 0.0084,-0.01726 0.01417,-0.01417 0.08274,-0.133982 0.07888,-0.13784 -0.0036,-0.0036 -0.06745,0.04916 -0.09054,0.07503 -0.007,0.0079 -0.03442,0.03103 -0.06084,0.05141 -0.02641,0.0204 -0.06619,0.05454 -0.08838,0.07591 -0.02218,0.02136 -0.05822,0.0524 -0.08006,0.06897 -0.02184,0.01658 -0.06134,0.05053 -0.08776,0.07547 -0.02641,0.02492 -0.06678,0.05962 -0.08966,0.07712 -0.02289,0.0175 -0.05028,0.04062 -0.06084,0.05139 -0.01056,0.01072 -0.03195,0.03028 -0.04754,0.04335 -0.01566,0.01302 -0.0271,0.02475 -0.02563,0.02595 0.007,0.0056 0.08161,0.04914 0.08426,0.04914 0.0029,0 0.117124,0.06406 0.14425,0.08098 0.01385,0.0087 0.01401,0.0098 0.0047,0.03263 -0.0055,0.01302 -0.01219,0.02519 -0.01484,0.02705 -0.0028,0.002 -0.02175,0.03224 -0.04218,0.06748 -0.02044,0.03524 -0.04645,0.07846 -0.05778,0.09608 -0.01137,0.01761 -0.03119,0.05417 -0.04407,0.08125 -0.01284,0.02707 -0.02705,0.05301 -0.0315,0.05765 -0.01565,0.01631 -0.0616,0.09734 -0.05827,0.102687 0.0028,0.0044 0.0397,-0.0252 0.105327,-0.08465 z m 1.221018,-1.04022 c -0.01667,-0.01187 -0.03964,-0.02522 -0.05104,-0.02968 -0.03589,-0.01401 -0.171254,-0.09703 -0.171254,-0.104947 0,-0.0041 0.01186,-0.02581 0.02633,-0.0481 0.01451,-0.0223 0.03348,-0.05675 0.04222,-0.07653 0.0087,-0.0198 0.02662,-0.05185 0.03975,-0.07123 0.027,-0.03988 0.08643,-0.142126 0.12726,-0.218983 0.02668,-0.05023 0.03708,-0.06717 0.108191,-0.175927 0.01879,-0.02872 0.03414,-0.05516 0.03414,-0.05872 0,-0.0093 0.06167,-0.112426 0.0994,-0.166109 0.01435,-0.02037 0.05584,-0.04 0.08466,-0.04 0.01714,0 0.0397,0.0085 0.07551,0.02886 0.06131,0.03463 0.09661,0.06971 0.102666,0.102011 0.0056,0.03025 -0.0067,0.07417 -0.03007,0.106379 -0.01006,0.01385 -0.01829,0.02827 -0.01829,0.03197 0,0.0036 -0.0053,0.01451 -0.01169,0.02408 -0.04017,0.05962 -0.05374,0.08111 -0.08489,0.134395 -0.01911,0.03265 -0.04779,0.08455 -0.06377,0.115296 -0.01599,0.03074 -0.0422,0.07606 -0.05827,0.100724 -0.01599,0.02466 -0.04749,0.07799 -0.06985,0.118492 -0.03518,0.06375 -0.07379,0.13016 -0.1253,0.215372 -0.02145,0.03551 -0.02301,0.03587 -0.05569,0.01269 z m -0.826228,-0.478254 c -0.01657,-0.01034 -0.03382,-0.01878 -0.03832,-0.01878 -0.0044,0 -0.02264,-0.0095 -0.04034,-0.02117 -0.01769,-0.01169 -0.05943,-0.03664 -0.09273,-0.05551 -0.0333,-0.01887 -0.0617,-0.03522 -0.0631,-0.03633 -0.0014,-0.0011 0.0047,-0.01284 0.01335,-0.02616 0.06397,-0.09723 0.09825,-0.153001 0.121936,-0.198541 0.02463,-0.04732 0.07553,-0.134001 0.136406,-0.232322 0.01203,-0.01937 0.0221,-0.03956 0.02252,-0.04485 3.97e-4,-0.0053 0.01187,-0.02689 0.02563,-0.04804 0.01368,-0.02114 0.04129,-0.06726 0.06129,-0.102488 0.02002,-0.03524 0.04317,-0.07321 0.05149,-0.08443 0.0082,-0.0112 0.01517,-0.02439 0.01517,-0.0293 0,-0.01582 0.04386,-0.07117 0.06549,-0.08271 0.01153,-0.0061 0.0345,-0.01137 0.05104,-0.01153 0.02523,-2.18e-4 0.04,0.0056 0.09177,0.03587 0.07406,0.04336 0.09619,0.07071 0.09547,0.118065 -2.75e-4,0.0228 -0.0061,0.03941 -0.02322,0.06772 -0.01252,0.02063 -0.03855,0.06343 -0.05787,0.09513 -0.0193,0.0317 -0.0474,0.0807 -0.06242,0.108883 -0.03189,0.05982 -0.06407,0.115066 -0.09347,0.160403 -0.01153,0.01777 -0.0328,0.05524 -0.04733,0.08328 -0.01451,0.02804 -0.02925,0.05528 -0.03273,0.06058 -0.07004,0.106463 -0.115427,0.182429 -0.150513,0.251933 -0.0067,0.01351 -0.01401,0.02554 -0.01582,0.02677 -0.002,0.0012 -0.01702,-0.0062 -0.03359,-0.01654 z"
       id="path1661" />
  </g>
</svg>
