<?xml version="1.0" encoding="UTF-8" standalone="no"?>
<!-- Created with Inkscape (http://www.inkscape.org/) -->

<svg
   width="24.948572"
   height="24.769505"
   viewBox="0 0 6.6009764 6.5535981"
   version="1.1"
   id="svg1298"
   inkscape:version="1.1.1 (c3084ef, 2021-09-22)"
   sodipodi:docname="not-signal.svg"
   xmlns:inkscape="http://www.inkscape.org/namespaces/inkscape"
   xmlns:sodipodi="http://sodipodi.sourceforge.net/DTD/sodipodi-0.dtd"
   xmlns="http://www.w3.org/2000/svg"
   xmlns:svg="http://www.w3.org/2000/svg">
  <sodipodi:namedview
     id="namedview1300"
     pagecolor="#75dfb1"
     bordercolor="#999999"
     borderopacity="1"
     inkscape:pageshadow="0"
     inkscape:pageopacity="0"
     inkscape:pagecheckerboard="0"
     inkscape:document-units="mm"
     showgrid="false"
     fit-margin-top="0"
     fit-margin-left="0"
     fit-margin-right="0"
     fit-margin-bottom="0"
     units="px"
     inkscape:zoom="15.107842"
     inkscape:cx="11.484102"
     inkscape:cy="16.249839"
     inkscape:window-width="1440"
     inkscape:window-height="847"
     inkscape:window-x="3840"
     inkscape:window-y="44"
     inkscape:window-maximized="1"
     inkscape:current-layer="layer1" />
  <defs
     id="defs1295" />
  <g
     inkscape:label="Layer 1"
     inkscape:groupmode="layer"
     id="layer1"
     transform="translate(-126.66022,-62.604244)">
    <ellipse
       style="opacity:0.99;fill:#ffffff;stroke:#ffffff;stroke-width:0.0377454"
       id="path846-2-5-2-4"
       cx="129.96071"
       cy="65.881042"
       rx="3.2816155"
       ry="3.2579262" />
    <circle
       style="opacity:0.99;fill:#5398ff;fill-opacity:0.992157;stroke:#ffffff;stroke-width:0.0361104"
       id="path846-8-4-3"
       cx="129.96071"
       cy="65.881042"
       r="3.1281135" />
    <path
       style="fill:#ffffff;stroke-width:0.0283503"
       d="m 129.29435,68.171222 c -0.76626,-0.206883 -1.33548,-0.76776 -1.54443,-1.521761 -0.0776,-0.279815 -0.0761,-0.363956 0.006,-0.36436 0.0351,-2.72e-4 0.10997,-0.0079 0.16642,-0.01729 l 0.10262,-0.01697 0.0205,0.136644 c 0.081,0.540881 0.4767,1.067989 0.98465,1.312014 0.12952,0.06221 0.31838,0.129182 0.41973,0.14882 0.10141,0.01964 0.18852,0.03853 0.1937,0.042 0.005,0.0035 5.4e-4,0.07753 -0.0105,0.164599 -0.0195,0.154854 -0.0218,0.158274 -0.10867,0.15645 -0.0488,-0.0011 -0.15264,-0.01909 -0.23061,-0.04014 z m 1.84085,-0.90064 c -0.33187,-0.335378 -0.55919,-0.5885 -0.58974,-0.656673 l -0.0496,-0.11093 0.19232,-0.193833 c 0.10581,-0.106609 0.20929,-0.193833 0.22997,-0.193833 0.10089,0 0.26269,0.134002 0.76467,0.633178 l 0.54562,0.542549 -0.26156,0.26264 c -0.14384,0.144453 -0.2683,0.262643 -0.27655,0.262643 -0.008,0 -0.25801,-0.245581 -0.55503,-0.545741 z m -1.72745,0.222432 c -0.49364,-0.15678 -0.88961,-0.585639 -1.0067,-1.090304 -0.0421,-0.181316 -0.0248,-0.201257 0.17442,-0.201914 0.13375,-4.16e-4 0.16568,0.02577 0.16633,0.13655 2.8e-4,0.07461 0.13309,0.340399 0.23262,0.466072 0.12159,0.153508 0.38799,0.32146 0.577,0.363755 0.16758,0.0375 0.17939,0.06154 0.13629,0.277053 -0.0203,0.101091 -0.0815,0.111786 -0.27996,0.0488 z m 0.15305,-1.257213 c -0.2452,-0.245584 -0.45452,-0.476338 -0.46515,-0.512789 -0.0167,-0.0576 0.043,-0.128961 0.45716,-0.54574 0.37084,-0.373181 0.49266,-0.479468 0.54955,-0.479468 0.10201,0 0.99223,0.891671 0.99223,0.993885 0,0.05086 -0.11922,0.188005 -0.46037,0.529623 -0.38697,0.3875 -0.47371,0.461004 -0.54399,0.461004 -0.0702,0 -0.15527,-0.07177 -0.52943,-0.446515 z m -0.38542,-0.993563 c -0.0892,-0.03352 -0.25783,-0.183741 -0.67345,-0.599762 l -0.55451,-0.555022 0.26962,-0.268497 0.26961,-0.268494 0.54048,0.538232 c 0.49181,0.489753 0.64995,0.680977 0.64995,0.785927 0,0.02053 -0.086,0.121709 -0.19138,0.224839 l -0.19135,0.187514 z"
       id="path10539" />
  </g>
</svg>
