<?xml version="1.0" encoding="UTF-8" standalone="no"?>
<!-- Created with Inkscape (http://www.inkscape.org/) -->

<svg
   width="24.996445"
   height="24.965551"
   viewBox="0 0 6.6136424 6.6054687"
   version="1.1"
   id="svg1071"
   inkscape:version="1.1.1 (c3084ef, 2021-09-22)"
   sodipodi:docname="ralenti.svg"
   xmlns:inkscape="http://www.inkscape.org/namespaces/inkscape"
   xmlns:sodipodi="http://sodipodi.sourceforge.net/DTD/sodipodi-0.dtd"
   xmlns="http://www.w3.org/2000/svg"
   xmlns:svg="http://www.w3.org/2000/svg">
  <sodipodi:namedview
     id="namedview1073"
     pagecolor="#ed8383"
     bordercolor="#999999"
     borderopacity="1"
     inkscape:pageshadow="0"
     inkscape:pageopacity="0"
     inkscape:pagecheckerboard="0"
     inkscape:document-units="mm"
     showgrid="false"
     fit-margin-top="0"
     fit-margin-left="0"
     fit-margin-right="0"
     fit-margin-bottom="0"
     units="px"
     inkscape:zoom="8.8011651"
     inkscape:cx="13.691369"
     inkscape:cy="23.008317"
     inkscape:window-width="1312"
     inkscape:window-height="847"
     inkscape:window-x="3926"
     inkscape:window-y="44"
     inkscape:window-maximized="0"
     inkscape:current-layer="layer1" />
  <defs
     id="defs1068" />
  <g
     inkscape:label="Layer 1"
     inkscape:groupmode="layer"
     id="layer1"
     transform="translate(-87.837117,-77.420845)">
    <circle
       style="opacity:0.99;fill:#ff8e04;fill-opacity:1;stroke:#ffffff;stroke-width:0.0373189"
       id="path846-8-6"
       cx="91.143936"
       cy="80.723587"
       r="3.2328091" />
    <path
       style="fill:#ffffff;stroke-width:0.0142004"
       d="m 90.916838,84.022652 c -0.02733,-0.0034 -0.110405,-0.01265 -0.184604,-0.02102 -0.716748,-0.08077 -1.459911,-0.451347 -1.967783,-0.981231 -0.470996,-0.491413 -0.768622,-1.083732 -0.887206,-1.76568 -0.03835,-0.220597 -0.05192,-0.621471 -0.02879,-0.852022 0.149641,-1.493208 1.253208,-2.683067 2.734699,-2.948523 0.161816,-0.02901 0.230186,-0.03311 0.553816,-0.03333 0.402794,-1.4e-4 0.521875,0.01285 0.835552,0.09208 1.072288,0.270807 1.962448,1.101827 2.310183,2.156702 0.130285,0.395228 0.179323,0.737773 0.165919,1.159076 -0.05106,1.606526 -1.24075,2.934607 -2.836847,3.166923 -0.144633,0.02099 -0.595779,0.03858 -0.694915,0.02701 z m -0.01185,-0.662707 c 0.0056,-0.182848 0.02667,-0.23005 0.126109,-0.28078 0.107161,-0.05468 0.245355,-0.02187 0.314133,0.07455 0.02908,0.04082 0.0337,0.06599 0.03791,0.206227 0.0056,0.185796 -0.01387,0.172488 0.201131,0.137994 1.023685,-0.164245 1.878672,-0.88146 2.220101,-1.862376 0.05916,-0.169932 0.118455,-0.426128 0.131698,-0.568985 l 0.0095,-0.102961 -0.112092,-8.3e-5 c -0.13967,-9.9e-5 -0.205838,-0.01803 -0.267817,-0.0724 -0.124745,-0.109533 -0.09495,-0.330496 0.05412,-0.401229 0.03494,-0.01656 0.08848,-0.0233 0.185409,-0.0233 h 0.136307 v -0.04725 c 0,-0.02597 -0.01264,-0.117028 -0.02806,-0.202353 -0.182682,-1.009504 -0.914458,-1.849358 -1.89148,-2.170857 -0.190168,-0.06258 -0.426412,-0.114952 -0.55841,-0.123795 l -0.071,-0.0045 -0.0071,0.151701 c -0.0078,0.167154 -0.02281,0.201964 -0.113452,0.263659 -0.06563,0.04467 -0.190282,0.04467 -0.255899,0 -0.09066,-0.06169 -0.105636,-0.0965 -0.113464,-0.263659 l -0.0071,-0.151701 -0.0639,0.0038 c -0.128777,0.0081 -0.379857,0.06341 -0.564887,0.124293 -0.727101,0.239271 -1.320297,0.760382 -1.656283,1.455005 -0.139399,0.288204 -0.234804,0.610021 -0.259616,0.875729 l -0.0084,0.0899 h 0.138364 c 0.158793,0 0.216036,0.0197 0.272537,0.09376 0.0644,0.08443 0.0624,0.22462 -0.0044,0.303935 -0.0589,0.06998 -0.111161,0.08896 -0.265855,0.09648 l -0.140304,0.0069 0.0093,0.100969 c 0.02186,0.236082 0.122056,0.58319 0.24295,0.841899 0.213353,0.456561 0.567299,0.866234 0.996376,1.153239 0.236082,0.157906 0.543867,0.298042 0.814083,0.370648 0.135396,0.03639 0.38128,0.08241 0.449637,0.08419 l 0.04495,0.0011 0.005,-0.159754 z m 0.14873,-2.161513 c -0.09007,-0.03209 -0.179455,-0.134093 -0.179455,-0.204747 0,-0.02053 -0.17097,-0.15734 -0.62837,-0.502956 -0.3456,-0.261142 -0.640091,-0.487931 -0.65442,-0.503964 -0.01431,-0.01604 -0.02952,-0.05512 -0.03377,-0.0868 -0.01588,-0.118541 0.06106,-0.205639 0.181687,-0.205639 0.06117,0 0.07908,0.0089 0.19988,0.09983 0.07298,0.0549 0.362127,0.273401 0.642563,0.48555 0.280431,0.212136 0.520954,0.385706 0.53449,0.385706 0.01353,0 0.03723,-0.01117 0.05261,-0.02485 0.01543,-0.01366 0.355373,-0.368458 0.755487,-0.788424 0.400117,-0.419969 0.745759,-0.773026 0.768084,-0.78457 0.0771,-0.03986 0.166037,-0.01667 0.225365,0.05873 0.03382,0.04295 0.03992,0.149309 0.0114,0.198626 -0.0095,0.01641 -0.350494,0.378572 -0.757793,0.804806 -0.691241,0.723371 -0.741224,0.779045 -0.75075,0.836379 -0.01363,0.08197 -0.03797,0.126508 -0.09804,0.17924 -0.0488,0.04288 -0.128554,0.07428 -0.185718,0.07318 -0.0156,-4.24e-4 -0.05306,-0.0093 -0.08325,-0.02007 z"
       id="path7243"
       sodipodi:nodetypes="scsscssssscsscsccssscsccscscsscssssccssscsscscsssscccccssccsssscsscssccscc" />
  </g>
</svg>
